<svg width="54" height="36" viewBox="0 0 54 36" xmlns="http://www.w3.org/2000/svg" xmlns:xlink="http://www.w3.org/1999/xlink"><svg width="18" height="18" viewBox="-1 -1 18 18" id="btn-dismiss"><path fill="#888" d="M13.95 3.414L12.536 2 8 6.536 3.464 2 2.05 3.414 6.586 7.95 2.05 12.485l1.414 1.414L8 9.364l4.536 4.535 1.414-1.414L9.414 7.95z"/></svg><svg width="18" height="18" viewBox="-1 -1 18 18" id="download-#444" x="18"><path d="M7.5 12L11 8H9V2H6v6H4zM2 13h11v2H2z" fill="#444"/></svg><svg id="full-screen" width="18" height="18" viewBox="-1 -1 18 18" y="18"><style>.acst0{fill-rule:evenodd;clip-rule:evenodd;fill:#888}</style><path class="acst0" d="M8 15v-2h5V8h2v7H8zm1.4-8L8 5.6l3.8-3.8L10 0h5v5l-1.8-1.8L9.4 7zM2 2v5H0V0h7v2H2zm3.6 6L7 9.4l-3.8 3.8L5 15H0v-5l1.8 1.8L5.6 8z"/></svg><svg width="18" height="18" viewBox="-1 -1 18 18" id="th-blue-large-icon-#444" x="18" y="18"><path fill="#444" d="M5 2v3H2V2h3m2-2H0v7h7V0zm6 2v3h-3V2h3m2-2H8v7h7V0zM5 10v3H2v-3h3m2-2H0v7h7V8zm6 2v3h-3v-3h3m2-2H8v7h7V8z"/></svg><svg width="18" height="18" viewBox="-1 -1 18 18" id="th-blue-list-icon-#444" x="36"><path fill="#444" d="M1 1h14v2H1zm0 12h14v2H1zm0-6h14v2H1z"/></svg></svg>