<svg width="100" height="19" viewBox="0 0 100 19" xmlns="http://www.w3.org/2000/svg"><title>Group 4</title><g fill="#FB0" fill-rule="evenodd"><path d="M10 15l-5.878 3.09 1.123-6.545L.489 6.91l6.572-.955L10 0l2.939 5.955 6.572.955-4.756 4.635 1.123 6.545zM30 15l-5.878 3.09 1.123-6.545-4.756-4.635 6.572-.955L30 0l2.939 5.955 6.572.955-4.756 4.635 1.123 6.545zM50 15l-5.878 3.09 1.123-6.545-4.756-4.635 6.572-.955L50 0l2.939 5.955 6.572.955-4.756 4.635 1.123 6.545zM70 15l-5.878 3.09 1.123-6.545-4.756-4.635 6.572-.955L70 0l2.939 5.955 6.572.955-4.756 4.635 1.123 6.545zM90 15l-5.878 3.09 1.123-6.545-4.756-4.635 6.572-.955L90 0l2.939 5.955 6.572.955-4.756 4.635 1.123 6.545z"/></g></svg>