<?xml version="1.0" encoding="UTF-8"?>
<svg width="16px" height="16px" viewBox="0 0 16 16" version="1.1" xmlns="http://www.w3.org/2000/svg" xmlns:xlink="http://www.w3.org/1999/xlink">
    <!-- Generator: Sketch 50.2 (55047) - http://www.bohemiancoding.com/sketch -->
    <title>画板4 copy 19</title>
    <desc>Created with Sketch.</desc>
    <defs></defs>
    <g id="ICON-基础库" stroke="none" stroke-width="1" fill="none" fill-rule="evenodd">
        <g id="画板4-copy-19">
            <rect id="Rectangle-17" fill="#D8D8D8" opacity="0" x="0" y="0" width="16" height="16"></rect>
            <path d="M10,1 L10,3.001 L13,3.001 L13,6 L15,6 L15,1 L10,1 Z M1,1 L1,6 L3,6 L3,3.001 L6,3.001 L6,1 L1,1 Z M13,10 L13,13.001 L10,13.001 L10,15 L15,15 L15,10 L13,10 Z M1,10 L1,15 L6,15 L6,13.001 L3,13.001 L3,10 L1,10 Z" id="Fill-1-Copy" fill="#888888"></path>
        </g>
    </g>
</svg>