<?xml version="1.0" encoding="UTF-8"?>
<svg width="16px" height="16px" viewBox="0 0 16 16" version="1.1" xmlns="http://www.w3.org/2000/svg" xmlns:xlink="http://www.w3.org/1999/xlink">
    <!-- Generator: Sketch 52.2 (67145) - http://www.bohemiancoding.com/sketch -->
    <title>缩小</title>
    <desc>Created with Sketch.</desc>
    <g id="Page-1" stroke="none" stroke-width="1" fill="none" fill-rule="evenodd">
        <g id="1-2中" transform="translate(-1151.000000, -215.000000)" fill="#888888">
            <g id="Group" transform="translate(1145.000000, 209.000000)">
                <g id="缩小" transform="translate(6.000000, 6.000000)">
                    <path d="M15.476,13.375 L13.311,11.175 C15.108285,8.29016447 14.454006,4.51583828 11.7905939,2.40426412 C9.12718174,0.292689968 5.30311222,0.516546071 2.90426501,2.92445836 C0.505417797,5.33237066 0.295986883,9.15725732 2.41759185,11.8126861 C4.53919683,14.4681148 8.31596397,15.1081533 11.194,13.3 L13.337,15.48 L15.476,13.375 Z M3,7.661 C3.00000004,5.77530602 4.13596811,4.07530842 5.87816089,3.35377803 C7.62035366,2.63224764 9.62564142,3.03129189 10.9588854,4.3648219 C12.2921294,5.69835192 12.6907434,7.70372523 11.9688393,9.44576318 C11.2469352,11.1878011 9.54669393,12.3234045 7.661,12.323 C5.08755314,12.3202433 3.00220465,10.2344474 3,7.661 Z" id="Shape" fill-rule="nonzero"></path>
                    <rect id="Rectangle" x="4.516" y="6.495" width="6" height="2"></rect>
                </g>
            </g>
        </g>
    </g>
</svg>