<?xml version="1.0" encoding="UTF-8"?>
<svg width="16px" height="16px" viewBox="0 0 16 16" version="1.1" xmlns="http://www.w3.org/2000/svg" xmlns:xlink="http://www.w3.org/1999/xlink">
    <!-- Generator: Sketch 52.2 (67145) - http://www.bohemiancoding.com/sketch -->
    <title>放大</title>
    <desc>Created with Sketch.</desc>
    <g id="Page-1" stroke="none" stroke-width="1" fill="none" fill-rule="evenodd">
        <g id="1-2中" transform="translate(-1119.000000, -215.000000)" fill="#888888">
            <g id="Group-2" transform="translate(1113.000000, 209.000000)">
                <g id="放大" transform="translate(6.000000, 6.000000)">
                    <path d="M15.476,13.375 L13.159,11.018 C14.9629946,8.13613271 14.3165694,4.35926417 11.6568483,2.24137858 C8.99712721,0.123492984 5.17142017,0.339287156 2.76673679,2.74283732 C0.362053404,5.14638749 0.144455953,8.97199239 2.26108761,11.6327115 C4.37771928,14.2934305 8.15428269,14.941636 11.037,13.139 L13.337,15.479 L15.476,13.375 Z M7.516,12.156 C5.62976039,12.156403 3.92914066,11.0201494 3.20758943,9.27737468 C2.48603819,7.53459993 2.88575318,5.52875656 4.22024162,4.19569967 C5.55473005,2.86264279 7.56100128,2.46508091 9.30300059,3.18850226 C11.0449999,3.91192361 12.1794275,5.61376191 12.177,7.5 C12.1709426,10.0708759 10.0868809,12.152702 7.516,12.156 Z" id="Shape" fill-rule="nonzero"></path>
                    <polygon id="Path" points="8.516 4.495 6.516 4.495 6.516 6.495 4.516 6.495 4.516 8.495 6.516 8.495 6.516 10.495 8.516 10.495 8.516 8.495 10.516 8.495 10.516 6.495 8.516 6.495"></polygon>
                </g>
            </g>
        </g>
    </g>
</svg>