<?xml version="1.0" encoding="utf-8"?>
<!-- Generator: Adobe Illustrator 21.0.0, SVG Export Plug-In . SVG Version: 6.00 Build 0)  -->
<svg version="1.1" id="图层_1" xmlns="http://www.w3.org/2000/svg" xmlns:xlink="http://www.w3.org/1999/xlink" x="0px" y="0px"
	 width="16px" height="16px" viewBox="0 0 16 16" style="enable-background:new 0 0 16 16;" xml:space="preserve">
<g>
	<g>
		<path style="fill:#0ABF5B;" d="M12,8c-2.209,0-4,1.791-4,4c0,2.209,1.791,4,4,4s4-1.791,4-4C16,9.791,14.209,8,12,8z
			 M11.392,14.076l-1.778-1.778l0.707-0.707l1.07,1.07l2.422-2.422l0.707,0.707L11.392,14.076z"/>
	</g>
	<path style="fill:#888888;" d="M7,12H2V5.575l6,3.464l6-3.464v1.856c0.8,0.351,1.484,0.902,2,1.594V2H0v12h7.422
		C7.154,13.387,7,12.712,7,12z M13.129,4L8,6.961L2.871,4H13.129z"/>
</g>
</svg>
