<?xml version="1.0" encoding="utf-8"?>
<!-- Generator: Adobe Illustrator 21.0.0, SVG Export Plug-In . SVG Version: 6.00 Build 0)  -->
<svg version="1.1" id="图层_1" xmlns="http://www.w3.org/2000/svg" xmlns:xlink="http://www.w3.org/1999/xlink" x="0px" y="0px"
	 width="16px" height="16px" viewBox="0 0 16 16" style="enable-background:new 0 0 16 16;" xml:space="preserve">
<g>
	<g>
		<path style="fill:#0ABF5B;" d="M12,8c-2.209,0-4,1.791-4,4c0,2.209,1.791,4,4,4s4-1.791,4-4C16,9.791,14.209,8,12,8z
			 M11.392,14.076l-1.778-1.778l0.707-0.707l1.07,1.07l2.422-2.422l0.707,0.707L11.392,14.076z"/>
	</g>
	<g>
		<path style="fill:#888888;" d="M7.422,14H2V2h8v5.422C10.613,7.154,11.288,7,12,7V0H0v16h9.027
			C8.334,15.484,7.773,14.802,7.422,14z"/>
		<rect x="5" y="11" style="fill:#888888;" width="2" height="2"/>
	</g>
</g>
</svg>
