<?xml version="1.0" encoding="UTF-8"?>
<svg width="16px" height="16px" viewBox="0 0 16 16" version="1.1" xmlns="http://www.w3.org/2000/svg" xmlns:xlink="http://www.w3.org/1999/xlink">
    <!-- Generator: Sketch 52.6 (67491) - http://www.bohemiancoding.com/sketch -->
    <title>QQ</title>
    <desc>Created with Sketch.</desc>
    <g id="ICON-基础库(绘制参考)" stroke="none" stroke-width="1" fill="none" fill-rule="evenodd">
        <g id="画板3-copy-22">
            <g id="QQ">
                <rect id="矩形" fill-rule="nonzero" x="0" y="0" width="16" height="16"></rect>
                <path d="M2.98219524,6.16 C2.98219524,3.087 4.43319524,0 8.00019524,0 C11.5671952,0 13.0181952,3.087 13.0181952,6.16 C13.0181952,6.343 13.0081952,6.696 13.0081952,6.718 L13.7281952,8.514 C13.9251952,9.028 14.1201952,9.563 14.2631952,10.022 C14.9431952,12.212 14.7221952,13.118 14.5551952,13.139 C14.5501952,13.14 14.5451952,13.14 14.5411952,13.14 C14.1681952,13.14 13.1531952,11.49 13.1531952,11.49 C13.1531952,12.47 12.6481952,13.748 11.5571952,14.671 C11.9661952,14.797 12.4661952,14.991 12.7881952,15.229 C13.0771952,15.441 13.0411952,15.659 12.9891952,15.747 C12.8761952,15.938 11.9191952,16 10.8511952,16 C9.75419524,16 8.54119524,15.934 8.00019524,15.873 C7.46019524,15.934 6.24619524,16 5.14919524,16 C4.08119524,16 3.12519524,15.938 3.01219524,15.747 C2.95919524,15.659 2.92319524,15.441 3.21219524,15.229 C3.53419524,14.991 4.03419524,14.798 4.44219524,14.672 C3.35119524,13.748 2.84719524,12.47 2.84719524,11.49 C2.84719524,11.49 1.83219524,13.14 1.45919524,13.14 C1.45419524,13.14 1.45019524,13.14 1.44519524,13.139 C1.27719524,13.118 1.05719524,12.212 1.73719524,10.022 C1.88019524,9.563 2.07519524,9.028 2.27119524,8.514 L2.99219524,6.718 C2.99119524,6.696 2.98219524,6.343 2.98219524,6.16 Z M11.155,5.15950923 C11.155,3.41705084 9.74245839,2.00450923 8,2.00450923 C6.25754161,2.00450923 4.845,3.41705084 4.845,5.15950923 L4.845,6.70504276 C4.81395575,6.76834964 4.78395352,6.8305663 4.75516923,6.89144824 C3.77699785,8.9654976 3.868766,9.89329855 4.0322084,9.93747526 C4.03702057,9.93916139 4.04098164,9.93971809 4.04593298,9.94041395 C4.15289732,9.95544681 4.419253,9.87530883 4.845,9.7 L4.845,10.845 C4.845,12.5874584 6.25754161,14 8,14 C9.74245839,14 11.155,12.5874584 11.155,10.845 L11.155,9.7 C11.580747,9.87530883 11.8471027,9.95544681 11.954067,9.94041395 C11.9590184,9.93971809 11.9629794,9.93916139 11.9677916,9.93747526 C12.131234,9.89329855 12.2230021,8.9654976 11.2448308,6.89144824 C11.2160465,6.8305663 11.1860442,6.76834964 11.155,6.70504276 L11.155,5.15950923 Z" fill="#888888"></path>
            </g>
        </g>
    </g>
</svg>