<?xml version="1.0" encoding="UTF-8"?>
<svg width="16px" height="16px" viewBox="0 0 16 16" version="1.1" xmlns="http://www.w3.org/2000/svg" xmlns:xlink="http://www.w3.org/1999/xlink">
    <!-- Generator: Sketch 50.2 (55047) - http://www.bohemiancoding.com/sketch -->
    <title>画板5 copy 19</title>
    <desc>Created with Sketch.</desc>
    <defs></defs>
    <g id="ICON-基础库" stroke="none" stroke-width="1" fill="none" fill-rule="evenodd">
        <g id="画板5-copy-19">
            <rect id="Rectangle-17-Copy" fill="#D8D8D8" opacity="0" x="0" y="0" width="16" height="16"></rect>
            <path d="M1,10 L1,12.001 L4,12.001 L4,15 L6,15 L6,10 L1,10 Z M10,10 L10,15 L12,15 L12,12.001 L15,12.001 L15,10 L10,10 Z M4,1 L4,4.001 L1,4.001 L1,6 L6,6 L6,1 L4,1 Z M10,1 L10,6 L15,6 L15,4.001 L12,4.001 L12,1 L10,1 Z" id="Fill-1-Copy-2" fill="#888888"></path>
        </g>
    </g>
</svg>