<?xml version="1.0" encoding="utf-8"?>
<!-- Generator: Adobe Illustrator 21.0.0, SVG Export Plug-In . SVG Version: 6.00 Build 0)  -->
<svg version="1.1" id="图层_1" xmlns="http://www.w3.org/2000/svg" xmlns:xlink="http://www.w3.org/1999/xlink" x="0px" y="0px"
	 width="16px" height="16px" viewBox="0 0 16 16" style="enable-background:new 0 0 16 16;" xml:space="preserve">
<g id="ICON-基础库_x28_绘制参考_x29_">
	<g id="画板10-copy-18" transform="translate(-1.000000, 0.000000)">
		<path id="Combined-Shape" style="fill:#888888;" d="M2,12.5C2,10.172,6.664,9,9,9s7,1.172,7,3.5V15H2V12.5z M14,12.567
			C13.622,11.962,11.134,11,9,11s-4.622,0.962-5,1.567V13h10V12.567z M9,8C6.79,8,5,6.21,5,4s1.79-4,4-4s4,1.79,4,4S11.21,8,9,8z
			 M9,6c1.105,0,2-0.895,2-2s-0.895-2-2-2S7,2.895,7,4S7.895,6,9,6z"/>
	</g>
</g>
</svg>
