<?xml version="1.0" encoding="utf-8"?>
<!-- Generator: Adobe Illustrator 21.0.0, SVG Export Plug-In . SVG Version: 6.00 Build 0)  -->
<svg version="1.1" id="图层_1" xmlns="http://www.w3.org/2000/svg" xmlns:xlink="http://www.w3.org/1999/xlink" x="0px" y="0px"
	 width="16px" height="16px" viewBox="0 0 16 16" style="enable-background:new 0 0 16 16;" xml:space="preserve">
<g>
	<path style="fill:#0ABF5B;" d="M12,8c-2.209,0-4,1.791-4,4c0,2.209,1.791,4,4,4s4-1.791,4-4C16,9.791,14.209,8,12,8z
		 M11.392,14.076l-1.778-1.778l0.707-0.707l1.07,1.07l2.422-2.422l0.707,0.707L11.392,14.076z"/>
	<g>
		<path style="fill:#888888;" d="M7.101,13H3v-0.433c0.326-0.521,2.217-1.304,4.099-1.512c0.149-0.763,0.471-1.459,0.926-2.055
			C8.017,9.001,8.008,9,8,9c-2.336,0-7,1.172-7,3.5V15h7.023C7.581,14.416,7.252,13.744,7.101,13z"/>
		<path style="fill:#888888;" d="M8,8c2.21,0,4-1.79,4-4c0-2.21-1.79-4-4-4C5.79,0,4,1.79,4,4C4,6.21,5.79,8,8,8z M8,2
			c1.105,0,2,0.895,2,2c0,1.105-0.895,2-2,2C6.895,6,6,5.105,6,4C6,2.895,6.895,2,8,2z"/>
	</g>
</g>
</svg>
