<?xml version="1.0" encoding="UTF-8"?>
<svg width="116px" height="1px" viewBox="0 0 116 1" version="1.1" xmlns="http://www.w3.org/2000/svg" xmlns:xlink="http://www.w3.org/1999/xlink">
    <!-- Generator: Sketch 52.3 (67297) - http://www.bohemiancoding.com/sketch -->
    <title>路径 2</title>
    <desc>Created with Sketch.</desc>
    <g id="Page-1" stroke="none" stroke-width="1" fill="none" fill-rule="evenodd">
        <g id="备案-初始页-1" transform="translate(-444.000000, -433.000000)" fill="#DDDDDD" fill-rule="nonzero">
            <path d="M444,434 L444,433 L448,433 L448,434 L444,434 Z M452,434 L452,433 L456,433 L456,434 L452,434 Z M460,434 L460,433 L464,433 L464,434 L460,434 Z M468,434 L468,433 L472,433 L472,434 L468,434 Z M476,434 L476,433 L480,433 L480,434 L476,434 Z M484,434 L484,433 L488,433 L488,434 L484,434 Z M492,434 L492,433 L496,433 L496,434 L492,434 Z M500,434 L500,433 L504,433 L504,434 L500,434 Z M508,434 L508,433 L512,433 L512,434 L508,434 Z M516,434 L516,433 L520,433 L520,434 L516,434 Z M524,434 L524,433 L528,433 L528,434 L524,434 Z M532,434 L532,433 L536,433 L536,434 L532,434 Z M540,434 L540,433 L544,433 L544,434 L540,434 Z M548,434 L548,433 L552,433 L552,434 L548,434 Z M556,434 L556,433 L560,433 L560,434 L556,434 Z" id="路径-2"></path>
        </g>
    </g>
</svg>