<?xml version="1.0" encoding="utf-8"?>
<!-- Generator: Adobe Illustrator 21.0.0, SVG Export Plug-In . SVG Version: 6.00 Build 0)  -->
<svg version="1.1" id="图层_1" xmlns="http://www.w3.org/2000/svg" xmlns:xlink="http://www.w3.org/1999/xlink" x="0px" y="0px"
	 width="16px" height="16px" viewBox="0 0 16 16" style="enable-background:new 0 0 16 16;" xml:space="preserve">
<g>
	<path style="fill:#0ABF5B;" d="M12,8c-2.209,0-4,1.791-4,4c0,2.209,1.791,4,4,4s4-1.791,4-4C16,9.791,14.209,8,12,8z
		 M11.392,14.076l-1.778-1.778l0.707-0.707l1.07,1.07l2.422-2.422l0.707,0.707L11.392,14.076z"/>
	<circle style="fill:#888888;" cx="10.498" cy="6.499" r="1.249"/>
	<circle style="fill:#888888;" cx="5.502" cy="6.499" r="1.249"/>
	<path style="fill:#888888;" d="M2,8c0-2.698,2.631-5,6-5c3.113,0,5.592,1.968,5.951,4.395c0.785,0.333,1.451,0.874,1.97,1.536
		C15.968,8.626,16,8.317,16,8c0-3.866-3.582-7-8-7S0,4.134,0,8c0,2.248,1.211,4.248,3.093,5.529l-0.824,2.06
		c-0.062,0.154,0.013,0.328,0.167,0.39c0.074,0.03,0.156,0.029,0.23-0.003l2.99-1.281C6.397,14.893,7.184,15,8,15
		c0.007,0,0.014-0.001,0.022-0.001c-0.453-0.6-0.782-1.295-0.927-2.062C4.173,12.567,2,10.45,2,8z"/>
</g>
</svg>
