<?xml version="1.0" encoding="utf-8"?>
<!-- Generator: Adobe Illustrator 21.0.0, SVG Export Plug-In . SVG Version: 6.00 Build 0)  -->
<svg version="1.1" id="图层_1" xmlns="http://www.w3.org/2000/svg" xmlns:xlink="http://www.w3.org/1999/xlink" x="0px" y="0px"
	 width="16px" height="16px" viewBox="0 0 16 16" style="enable-background:new 0 0 16 16;" xml:space="preserve">
<g id="ICON-基础库_x28_绘制参考_x29__2_">
	<g id="画板10-copy-20_2_" transform="translate(0.000000, -1.000000)">
		<g id="分组">
			<path id="Combined-Shape_2_" style="fill:#888888;" d="M9.249,7.499c0-0.69,0.559-1.249,1.249-1.249
				c0.69,0,1.249,0.559,1.249,1.249s-0.559,1.249-1.249,1.249C9.808,8.748,9.249,8.189,9.249,7.499z M4.253,7.499
				c0-0.69,0.559-1.249,1.249-1.249s1.249,0.559,1.249,1.249S6.192,8.748,5.502,8.748S4.253,8.189,4.253,7.499z M2.666,16.976
				c-0.073,0.031-0.156,0.032-0.23,0.003c-0.154-0.062-0.229-0.236-0.167-0.39l0.824-2.06C1.211,13.248,0,11.248,0,9
				c0-3.866,3.582-7,8-7s8,3.134,8,7s-3.582,7-8,7c-0.816,0-1.603-0.107-2.345-0.305L2.666,16.976z M14,9c0-2.698-2.631-5-6-5
				S2,6.302,2,9s2.631,5,6,5S14,11.698,14,9z"/>
		</g>
	</g>
</g>
</svg>
