<?xml version="1.0" encoding="UTF-8"?>
<svg width="16px" height="16px" viewBox="0 0 16 16" version="1.1" xmlns="http://www.w3.org/2000/svg" xmlns:xlink="http://www.w3.org/1999/xlink">
    <!-- Generator: Sketch 55.1 (78136) - https://sketchapp.com -->
    <title>拓展组件hover</title>
    <desc>Created with Sketch.</desc>
    <g id="ICON-已上线" stroke="none" stroke-width="1" fill="none" fill-rule="evenodd">
        <g id="拓展组件">
            <g id="拓展组件hover">
                <rect id="Rectangle-Copy-11" fill="#FFFFFF" opacity="0" x="0" y="0" width="16" height="16"></rect>
                <path d="M4,9 L12,9 C13.6568542,9 15,10.3431458 15,12 C15,13.6568542 13.6568542,15 12,15 L4,15 C2.34314575,15 1,13.6568542 1,12 C1,10.3431458 2.34314575,9 4,9 Z M9.17070571,11 L4,11 C3.44771525,11 3,11.4477153 3,12 C3,12.5522847 3.44771525,13 4,13 L9.17070571,13 C9.06015422,12.6872211 9,12.3506354 9,12 C9,11.6493646 9.06015422,11.3127789 9.17070571,11 Z M12,7 L4,7 C2.34314575,7 1,5.65685425 1,4 C1,2.34314575 2.34314575,1 4,1 L12,1 C13.6568542,1 15,2.34314575 15,4 C15,5.65685425 13.6568542,7 12,7 Z M6.82929429,5 L12,5 C12.5522847,5 13,4.55228475 13,4 C13,3.44771525 12.5522847,3 12,3 L6.82929429,3 C6.93984578,3.31277893 7,3.64936458 7,4 C7,4.35063542 6.93984578,4.68722107 6.82929429,5 Z" id="Combined-Shape" fill="#006EFF" fill-rule="nonzero"></path>
            </g>
        </g>
    </g>
</svg>