<svg width="16" height="16" viewBox="0 0 16 16" fill="none" xmlns="http://www.w3.org/2000/svg">
<g clip-path="url(#clip0_102_34)">
<path d="M8.0533 2.9279L3.71487 5.44882V5.45123L1.20286 4.01162L7.55099 0.32269C7.86157 0.142373 8.24499 0.142441 8.5555 0.322869L14.9078 4.01396L12.3917 5.45588V5.44882L8.0533 2.9279Z" fill="#29CCFF"/>
<path d="M12.3917 8.34263V10.1911C12.3917 10.4138 12.2733 10.6196 12.0807 10.7315L8.0533 13.0717L4.02587 10.7315C3.83334 10.6196 3.71487 10.4138 3.71487 10.1911V8.33798L1.19629 6.8946V11.4087C1.19629 11.765 1.38584 12.0943 1.69388 12.2733L7.55089 15.6766C7.86151 15.8571 8.24509 15.8571 8.55571 15.6766L14.4127 12.2733C14.7208 12.0943 14.9103 11.765 14.9103 11.4087V6.89925L12.3917 8.34263Z" fill="#29CCFF"/>
<path d="M7.822 4.67056C7.93802 4.60357 8.08097 4.60357 8.197 4.67056L10.799 6.1728C10.915 6.23979 10.9865 6.36359 10.9865 6.49756V9.50205C10.9865 9.63602 10.915 9.75982 10.799 9.82681L8.197 11.3291C8.08097 11.396 7.93802 11.396 7.822 11.3291L5.22004 9.82681C5.10401 9.75982 5.03254 9.63602 5.03254 9.50205V6.49756C5.03254 6.36359 5.10401 6.23979 5.22004 6.1728L7.822 4.67056Z" fill="url(#paint0_linear_102_34)"/>
<path fill-rule="evenodd" clip-rule="evenodd" d="M7.551 0.322497L5.55045 1.48399L12.3917 5.45569L14.9078 4.01376L8.5555 0.322676C8.24499 0.142248 7.86157 0.14218 7.551 0.322497ZM4.21347 10.8395L10.5561 14.5152L8.55561 15.6767C8.24503 15.857 7.86161 15.857 7.5511 15.6765L1.69388 12.2731C1.38584 12.0941 1.19629 11.7648 1.19629 11.4085V6.8944L3.71487 8.33778V9.97433C3.71487 10.331 3.90486 10.6607 4.21347 10.8395Z" fill="#0052F2"/>
</g>
<defs>
<linearGradient id="paint0_linear_102_34" x1="8.0095" y1="4.5623" x2="8.0095" y2="11.4373" gradientUnits="userSpaceOnUse">
<stop stop-color="#29CCFF"/>
<stop offset="1" stop-color="#0052F2"/>
</linearGradient>
<clipPath id="clip0_102_34">
<rect width="16" height="16" fill="white"/>
</clipPath>
</defs>
</svg>
