<svg width="32" height="32" viewBox="0 0 32 32" fill="none" xmlns="http://www.w3.org/2000/svg">
<g clip-path="url(#clip0_101_26)">
<path d="M16.1067 5.8563L7.42987 10.8981V10.9029L2.40583 8.02372L15.1021 0.645868C15.7233 0.285234 16.4901 0.285371 17.1111 0.646226L29.8157 8.0284L24.7836 10.9122V10.8981L16.1067 5.8563Z" fill="#29CCFF"/>
<path d="M24.7836 16.6858V20.3827C24.7836 20.8281 24.5466 21.2398 24.1616 21.4635L16.1067 26.1439L8.05186 21.4635C7.6668 21.2398 7.42987 20.8281 7.42987 20.3827V16.6764L2.3927 13.7897V22.8179C2.3927 23.5304 2.7718 24.1891 3.38789 24.5471L15.1019 31.3537C15.7232 31.7147 16.4903 31.7147 17.1115 31.3537L28.8256 24.5471C29.4416 24.1891 29.8207 23.5304 29.8207 22.8179V13.799L24.7836 16.6858Z" fill="#29CCFF"/>
<path d="M15.6441 9.34161C15.8762 9.20763 16.1621 9.20763 16.3941 9.34161L21.598 12.3461C21.8301 12.4801 21.973 12.7277 21.973 12.9956V19.0046C21.973 19.2725 21.8301 19.5201 21.598 19.6541L16.3941 22.6586C16.1621 22.7926 15.8762 22.7926 15.6441 22.6586L10.4402 19.6541C10.2081 19.5201 10.0652 19.2725 10.0652 19.0046V12.9956C10.0652 12.7277 10.2081 12.4801 10.4402 12.3461L15.6441 9.34161Z" fill="url(#paint0_linear_101_26)"/>
<path fill-rule="evenodd" clip-rule="evenodd" d="M15.1021 0.645868L11.101 2.96885L24.7836 10.9122L29.8157 8.0284L17.1111 0.646226C16.4901 0.285371 15.7233 0.285234 15.1021 0.645868ZM8.42705 21.68L21.1124 29.0313L17.1113 31.3543C16.4902 31.715 15.7233 31.7148 15.1023 31.354L3.38789 24.5471C2.7718 24.1891 2.3927 23.5304 2.3927 22.8178V13.7897L7.42987 16.6764V19.9495C7.42987 20.6629 7.80984 21.3223 8.42705 21.68Z" fill="#0052F2"/>
</g>
<defs>
<linearGradient id="paint0_linear_101_26" x1="16.0191" y1="9.12509" x2="16.0191" y2="22.8751" gradientUnits="userSpaceOnUse">
<stop stop-color="#29CCFF"/>
<stop offset="1" stop-color="#0052F2"/>
</linearGradient>
<clipPath id="clip0_101_26">
<rect width="32" height="32" fill="white"/>
</clipPath>
</defs>
</svg>
