<?xml version="1.0" encoding="utf-8"?>
<!-- Generator: Adobe Illustrator 17.0.0, SVG Export Plug-In . SVG Version: 6.00 Build 0)  -->
<!DOCTYPE svg PUBLIC "-//W3C//DTD SVG 1.1//EN" "http://www.w3.org/Graphics/SVG/1.1/DTD/svg11.dtd">
<svg version="1.1" id="图层_1" xmlns="http://www.w3.org/2000/svg" xmlns:xlink="http://www.w3.org/1999/xlink" x="0px" y="0px"
	 width="30px" height="30px" viewBox="0 0 30 30" style="enable-background:new 0 0 30 30;" xml:space="preserve">
<style type="text/css">
	.st0{fill:#00A4FF;}
	.st1{fill:#00C6DA;}
	.st2{fill:#006EFF;}
	.st3{fill:#BBBBBB;}
</style>
<path class="st2" d="M15,8.4c2.8,0,5.2,2,5.7,4.8l0.3,1.6l1.6,0.3c1.8,0.3,3.1,1.8,3.1,3.7c0,2-1.6,3.6-3.6,3.7l-0.2,0H8.3l-0.3,0
	c-2,0-3.7-1.7-3.7-3.7c0-1.8,1.3-3.4,3.1-3.7l1.6-0.3l0.3-1.6C9.8,10.4,12.2,8.4,15,8.4 M15,6.1c-4,0-7.3,2.9-8,6.7
	C4.2,13.3,2,15.8,2,18.8c0,3.3,2.7,6,5.9,6v0h14.3v0c3.2-0.1,5.8-2.8,5.8-6c0-3-2.2-5.5-5-5.9C22.4,9,19,6.1,15,6.1L15,6.1z"/>
<g>
	<circle class="st2" cx="15" cy="14" r="2"/>
	<path class="st2" d="M16.5,17h-3c-1.4,0-2.5,1.1-2.5,2.5V20v1h8v-1v-0.5C19,18.1,17.9,17,16.5,17z"/>
</g>
</svg>
