<?xml version="1.0" encoding="utf-8"?>
<!-- Generator: Adobe Illustrator 21.0.0, SVG Export Plug-In . SVG Version: 6.00 Build 0)  -->
<svg version="1.1" xmlns="http://www.w3.org/2000/svg" xmlns:xlink="http://www.w3.org/1999/xlink" x="0px" y="0px" width="16px"
	 height="16px" viewBox="0 0 16 16" style="enable-background:new 0 0 16 16;" xml:space="preserve">
<style type="text/css">
	.st0{fill:#FFFFFF;}
	.st1{fill:#CCCCCC;}
	.st2{fill:#888888;}
	.st3{fill:#006EFF;}
	.st4{fill:#BBBBBB;}
</style>
<g id="描述层">
</g>
<g id="_x31__ICON栅格系统">
	<g>
		<path class="st3" d="M1,1v14h14V1H1z M13,13H3V3h10V13z"/>
		<path class="st3" d="M8,12c2.2,0,4-1.8,4-4c0-2.2-1.8-4-4-4C5.8,4,4,5.8,4,8C4,10.2,5.8,12,8,12z M8,6c1.1,0,2,0.9,2,2s-0.9,2-2,2
			S6,9.1,6,8S6.9,6,8,6z"/>
	</g>
</g>
</svg>
