<?xml version="1.0" encoding="UTF-8"?>
<svg width="16px" height="16px" viewBox="0 0 16 16" version="1.1" xmlns="http://www.w3.org/2000/svg" xmlns:xlink="http://www.w3.org/1999/xlink">
    <!-- Generator: Sketch 50.2 (55047) - http://www.bohemiancoding.com/sketch -->
    <title>云联网</title>
    <desc>Created with Sketch.</desc>
    <defs></defs>
    <g id="ICON-已有" stroke="none" stroke-width="1" fill="none" fill-rule="evenodd">
        <g id="云联网">
            <rect id="Rectangle-3-Copy-13" fill="#D8D8D8" opacity="0" x="0" y="0" width="16" height="16"></rect>
            <path d="M13.999,6.0215 C13.999,6.0145 14,6.0075 14,6.0005 C14,2.6865 11.313,0.0005 8,0.0005 C4.686,0.0005 2,2.6865 2,6.0005 C2,6.0075 2.001,6.0145 2.001,6.0215 C0.793,6.9345 0,8.3695 0,10.0005 C0,12.7615 2.238,15.0005 5,15.0005 L5,13.0005 C3.346,13.0005 2,11.6545 2,10.0005 C2,9.0645 2.439,8.1965 3.206,7.6175 L4.001,7.0175 L4.001,6.0215 L4.001,5.9345 C4.035,3.7595 5.816,2.0005 8,2.0005 C10.185,2.0005 11.966,3.7605 12,5.9375 L11.999,5.9455 L11.999,6.0215 L11.999,7.0175 L12.794,7.6175 C13.561,8.1965 14,9.0645 14,10.0005 C14,11.6545 12.654,13.0005 11,13.0005 L9,13.0005 L9,10.0005 L10,10.0005 L10,6.0005 L6,6.0005 L6,10.0005 L7,10.0005 L7,15.0005 L11,15.0005 C13.762,15.0005 16,12.7615 16,10.0005 C16,8.3695 15.207,6.9345 13.999,6.0215" id="Fill-1" fill="#888888"></path>
        </g>
    </g>
</svg>