<?xml version="1.0" encoding="UTF-8"?>
<svg width="22px" height="22px" viewBox="0 0 22 22" version="1.1" xmlns="http://www.w3.org/2000/svg" xmlns:xlink="http://www.w3.org/1999/xlink">
    <title>rongqijiqun</title>
    <defs>
        <polygon id="path-1" points="0 0 290 0 290 205 0 205"></polygon>
        <filter x="-1.2%" y="-1.2%" width="102.4%" height="103.4%" filterUnits="objectBoundingBox" id="filter-2">
            <feOffset dx="0" dy="1" in="SourceAlpha" result="shadowOffsetOuter1"></feOffset>
            <feGaussianBlur stdDeviation="1" in="shadowOffsetOuter1" result="shadowBlurOuter1"></feGaussianBlur>
            <feColorMatrix values="0 0 0 0 0.666666667   0 0 0 0 0.666666667   0 0 0 0 0.666666667  0 0 0 0.5 0" type="matrix" in="shadowBlurOuter1"></feColorMatrix>
        </filter>
        <polygon id="path-3" points="0 0 290 0 290 48 0 48"></polygon>
        <filter x="-0.2%" y="-1.0%" width="100.3%" height="102.1%" filterUnits="objectBoundingBox" id="filter-4">
            <feOffset dx="0" dy="-1" in="SourceAlpha" result="shadowOffsetInner1"></feOffset>
            <feComposite in="shadowOffsetInner1" in2="SourceAlpha" operator="arithmetic" k2="-1" k3="1" result="shadowInnerInner1"></feComposite>
            <feColorMatrix values="0 0 0 0 0.898039216   0 0 0 0 0.898039216   0 0 0 0 0.898039216  0 0 0 1 0" type="matrix" in="shadowInnerInner1"></feColorMatrix>
        </filter>
    </defs>
    <g id="页面-1" stroke="none" stroke-width="1" fill="none" fill-rule="evenodd">
        <g id="编组-5" transform="translate(-15.000000, -66.000000)">
            <g id="Rectangle-12-Copy">
                <use fill="black" fill-opacity="1" filter="url(#filter-2)" xlink:href="#path-1"></use>
                <use fill="#FFFFFF" fill-rule="evenodd" xlink:href="#path-1"></use>
            </g>
            <g id="01" transform="translate(0.000000, 55.000000)">
                <g id="矩形备份-2">
                    <use fill="#FFFFFF" fill-rule="evenodd" xlink:href="#path-3"></use>
                    <use fill="black" fill-opacity="1" filter="url(#filter-4)" xlink:href="#path-3"></use>
                </g>
            </g>
            <g id="rongqijiqun" transform="translate(15.000000, 66.000000)" fill="#000000" fill-rule="nonzero">
                <path d="M11,12.1 C10.905258,12.1 10.8105161,12.0763162 10.7256242,12.0290016 L5.7743758,9.26891301 C5.60459163,9.17427285 5.5,8.9993625 5.5,8.81007272 L5.5,3.28989552 C5.5,3.10060427 5.60458749,2.92569138 5.7743758,2.83105523 L10.7256242,0.0709931199 C10.8954055,-0.0236643733 11.1045945,-0.0236643733 11.2743758,0.0709931199 L16.2256242,2.83105523 C16.3954084,2.92569539 16.5,3.10060574 16.5,3.28989552 L16.5,8.81004622 C16.5,8.99933747 16.3954125,9.17425036 16.2256242,9.26888651 L11.2743758,12.0290016 C11.1909663,12.0755326 11.0963307,12.1 11,12.1 L11,12.1 Z M6.59750318,8.50417036 L11,10.9583566 L15.4024968,8.50414387 L15.4024968,3.59579788 L11,1.14163813 L6.59750318,3.59579788 L6.59750318,8.50417036 Z" id="形状"></path>
                <path d="M11.048765,6.10263432 C11.0025997,6.10263432 10.9572199,6.09079791 10.9170452,6.06826327 L7.96456897,4.4129143 C7.8811328,4.36616818 7.82933033,4.27874778 7.82878465,4.18377572 C7.82824754,4.08880365 7.87905004,4.00080901 7.96194795,3.95313195 L10.9456625,2.2358515 C11.0284493,2.188211 11.130619,2.18803919 11.2135686,2.23540099 L14.1660983,3.92172895 C14.2491377,3.96915014 14.3002195,4.05697386 14.2999993,4.15194046 C14.2997776,4.24690706 14.2482877,4.33449648 14.1650285,4.3815378 L11.1812604,6.06783926 C11.1408971,6.09064837 11.0952313,6.10263432 11.048765,6.10263432 L11.048765,6.10263432 Z M8.63399982,4.17928657 L11.0482301,5.53287521 L13.4948488,4.1501361 L11.0805383,2.77118656 L8.63399982,4.17928657 L8.63399982,4.17928657 Z M5.36119704,22 C5.26884607,22 5.1764951,21.9763086 5.09374564,21.9289789 L0.2674514,19.1680057 C0.101952064,19.0733352 0,18.8983688 0,18.7090184 L0,13.1870721 C0,12.9977202 0.101948025,12.8227512 0.2674514,12.7280848 L5.09374564,9.96711161 C5.25924219,9.87242378 5.4631519,9.87242378 5.62864844,9.96711161 L10.4549694,12.7280848 C10.6204688,12.8227552 10.7224208,12.9977216 10.7224208,13.1870721 L10.7224208,18.7089919 C10.7224208,18.8983438 10.6204728,19.0733127 10.4549694,19.1679792 L5.62864844,21.9289789 C5.54733863,21.975512 5.45509482,22 5.36119704,22 Z M1.0698056,18.4029915 L5.36119704,20.8579907 L9.65261523,18.4029915 L9.65261523,13.4930725 L5.36119704,11.0380997 L1.0698056,13.4930725 L1.0698056,18.4029915 Z" id="形状"></path>
                <path d="M5.36291962,15.4 C5.31757244,15.4 5.27299687,15.3866552 5.23353416,15.3612488 L2.33338207,13.494949 C2.25142457,13.4422457 2.20054015,13.3436848 2.20000414,13.2366099 C2.19947655,13.129535 2.24937872,13.0303266 2.3308075,12.9765738 L5.26167057,11.0404203 C5.34299022,10.9867087 5.44334928,10.986515 5.52482877,11.0399123 L8.42500713,12.9411689 C8.50653492,12.9946646 8.55667948,13.0936638 8.55646859,13.2007088 C8.55625636,13.3077538 8.50572098,13.4064957 8.42398255,13.459574 L5.49309321,15.3607708 C5.45342955,15.3864698 5.40856861,15.4 5.36291962,15.4 L5.36291962,15.4 Z M2.99094919,13.2315487 L5.36239419,14.7576032 L7.76565357,13.1986535 L5.39412975,11.6439762 L2.99094919,13.2315487 Z M16.6064241,15.4 C16.5610769,15.4 16.5165013,15.3866552 16.4770386,15.3612488 L13.5768866,13.494949 C13.4949574,13.442221 13.4440977,13.3436686 13.4435617,13.2366095 C13.4430342,13.1295505 13.4929118,13.030351 13.574312,12.9765738 L16.5052013,11.0404203 C16.586521,10.9867087 16.68688,10.986515 16.7683595,11.0399123 L19.6685379,12.9411689 C19.7500657,12.9946646 19.8002102,13.0936638 19.7999993,13.2007088 C19.7997871,13.3077538 19.7492517,13.4064957 19.6675133,13.459574 L16.736624,15.3607708 C16.6969498,15.3864671 16.652081,15.4 16.6064241,15.4 L16.6064241,15.4 Z M14.2344537,13.2315487 L16.6058987,14.7576032 L19.0091581,13.1986535 L16.6376342,11.6439762 L14.2344537,13.2315487 L14.2344537,13.2315487 Z" id="形状"></path>
                <path d="M16.5,22 C16.405258,22 16.3105161,21.9763163 16.2256242,21.9290018 L11.2743758,19.1689192 C11.1045916,19.0742793 11,18.8993693 11,18.7100799 L11,13.1899148 C11,13.000624 11.1045875,12.8257115 11.2743758,12.7310755 L16.2256242,9.97099296 C16.3954055,9.87633568 16.6045945,9.87633568 16.7743758,9.97099296 L21.7256242,12.7310755 C21.8954084,12.8257155 22,13.0006254 22,13.1899148 L22,18.7100534 C22,18.8993443 21.8954125,19.0742568 21.7256242,19.1688927 L16.7743758,21.9290018 C16.6909608,21.9755199 16.5963288,22 16.5,22 Z M12.0975032,18.4041517 L16.5,20.8583591 L20.9024968,18.4041517 L20.9024968,13.4958165 L16.5,11.0416356 L12.0975032,13.4958165 L12.0975032,18.4041517 Z" id="形状"></path>
            </g>
        </g>
    </g>
</svg>