
<svg width="16px" height="16px"  xmlns="http://www.w3.org/2000/svg"><path d="M9.00090072,10.8289758 L9,13.1245714 L11.9535472,11.4372821 L13.9580209,12.5945655 L9,15.4275714 L9,15.4287143 L8,16 L7,15.4287143 L7,15.4275714 L2.04197912,12.5945655 L4.04605947,11.4375092 L7,13.1245714 L7.00008893,10.8293257 C7.31284272,10.9398572 7.64939781,11 8,11 C8.35097203,11 8.6878673,10.9397302 9.00090072,10.8289758 Z M9,0.571571429 L13.957,3.40557143 L13.9580209,3.4054345 L15,4.001 L15,5.11324865 L14.999,5.11357143 L15,10.8867513 L12.999,9.73147346 L12.998,6.26857143 L10.9499194,7.45121148 C10.8226605,6.76279998 10.4603635,6.15681082 9.94936771,5.71958313 L11.952,4.56257143 L9,2.8755143 L9,0.571571429 Z M7,0.571571429 L7,2.8754 L4.047,4.56257143 L6.05063229,5.71958313 C5.53963646,6.15681082 5.17733952,6.76279998 5.0500806,7.45121148 L3,6.26757143 L3,9.73205081 L1,10.8867513 L1,4.001 L2.04197912,3.4054345 L2.042,3.40557143 L7,0.571571429 Z M8,6 C9.1045695,6 10,6.8954305 10,8 C10,9.1045695 9.1045695,10 8,10 C6.8954305,10 6,9.1045695 6,8 C6,6.8954305 6.8954305,6 8,6 Z" fill="#FFFFFF" fill-rule="evenodd"/></svg>