
<svg width="16px" height="16px"  xmlns="http://www.w3.org/2000/svg"><g fill="#FFFFFF" fill-rule="evenodd"><path d="M7.6,10 L5.2,10 L5.2,9.7402 C5.38144,9.3772 6.57568,8.8 7.6,8.8 C8.62432,8.8 9.81856,9.3772 10,9.7402 L10,10 L7.6,10 L4,10 L4,9 C4,8.0688 5.99885714,7.6 7,7.6 C8.00114286,7.6 10,8.0688 10,9 L10,10 L7.6,10 Z M7,7.6 C6.0055,7.6 5.2,6.7945 5.2,5.8 C5.2,4.8055 6.0055,4 7,4 C7.9945,4 8.8,4.8055 8.8,5.8 C8.8,6.7945 7.9945,7.6 7,7.6 Z M7,6.4 C7.33162915,6.4 7.6,6.13162915 7.6,5.8 C7.6,5.46837085 7.33162915,5.2 7,5.2 C6.66837085,5.2 6.4,5.46837085 6.4,5.8 C6.4,6.13162915 6.66837085,6.4 7,6.4 Z" fill-rule="nonzero" transform="translate(1 1)"/><path d="M8.75,0 L8.75,2.10105 L11.9,2.10105 L11.9,5.25 L14,5.25 L14,0 L8.75,0 Z M0,0 L0,5.25 L2.1,5.25 L2.1,2.10105 L5.25,2.10105 L5.25,0 L0,0 Z M11.9,8.75 L11.9,11.90105 L8.75,11.90105 L8.75,14 L14,14 L14,8.75 L11.9,8.75 Z M0,8.75 L0,14 L5.25,14 L5.25,11.90105 L2.1,11.90105 L2.1,8.75 L0,8.75 Z" transform="translate(1 1)"/></g></svg>