<?xml version="1.0" encoding="UTF-8"?>
<svg width="20px" height="20px" viewBox="0 0 20 20" version="1.1" xmlns="http://www.w3.org/2000/svg" xmlns:xlink="http://www.w3.org/1999/xlink">
    <!-- Generator: Sketch 52.5 (67469) - http://www.bohemiancoding.com/sketch -->
    <title>分组 23</title>
    <desc>Created with Sketch.</desc>
    <defs>
        <path d="M10,19 C14.9705627,19 19,14.9705627 19,10 C19,5.02943725 14.9705627,1 10,1 C5.02943725,1 1,5.02943725 1,10 C1,14.9705627 5.02943725,19 10,19 Z" id="path-1"></path>
    </defs>
    <g id="控制台界面" stroke="none" stroke-width="1" fill="none" fill-rule="evenodd">
        <g id="画板" transform="translate(-723.000000, -680.000000)">
            <g id="分组-23" transform="translate(723.000000, 680.000000)">
                <path d="M10,20 C4.4771525,20 0,15.5228475 0,10 C0,4.4771525 4.4771525,-1.77635684e-15 10,-1.77635684e-15 C15.5228475,-1.77635684e-15 20,4.4771525 20,10 C20,15.5228475 15.5228475,20 10,20 Z" id="路径" fill="#E5E5E5" fill-rule="nonzero"></path>
                <mask id="mask-2" fill="white">
                    <use xlink:href="#path-1"></use>
                </mask>
                <use id="路径" fill="#FFFFFF" fill-rule="nonzero" xlink:href="#path-1"></use>
                <polygon id="Fill-2132" fill="#E1001F" mask="url(#mask-2)" points="-0.125 18.1974946 20.125 18.1974946 20.125 16.3981375 -0.125 16.3981375"></polygon>
                <polygon id="Fill-2134" fill="#E1001F" mask="url(#mask-2)" points="-0.125 14.5982982 20.125 14.5982982 20.125 12.7989411 -0.125 12.7989411"></polygon>
                <polygon id="Fill-2136" fill="#E1001F" mask="url(#mask-2)" points="-0.125 10.9991018 20.125 10.9991018 20.125 9.19974465 -0.125 9.19974465"></polygon>
                <polygon id="Fill-2138" fill="#E1001F" mask="url(#mask-2)" points="-0.125 7.39894108 20.125 7.39894108 20.125 5.59958394 -0.125 5.59958394"></polygon>
                <polygon id="Fill-2140" fill="#E1001F" mask="url(#mask-2)" points="-0.125 3.80022679 20.125 3.80022679 20.125 2.00086965 -0.125 2.00086965"></polygon>
                <polygon id="Fill-2143" fill="#173181" mask="url(#mask-2)" points="-8.04915504 10.9995839 10.2616664 10.9995839 10.2616664 -1.59832678 -8.04915504 -1.59832678"></polygon>
                <polyline id="Fill-2162" fill="#FFFFFF" mask="url(#mask-2)" points="-0.502655043 -0.210237493 -0.347405043 0.26611965 0.153059243 0.26611965 -0.251940757 0.55974465 -0.0976550425 1.03658394 -0.502655043 0.741512507 -0.9071729 1.03658394 -0.752405043 0.55974465 -1.15740504 0.26611965 -0.656940757 0.26611965 -0.502655043 -0.210237493"></polyline>
                <polyline id="Fill-2163" fill="#FFFFFF" mask="url(#mask-2)" points="-0.502655043 1.89238751 -0.347405043 2.36874465 0.153059243 2.36874465 -0.251940757 2.66285179 -0.0976550425 3.13920894 -0.502655043 2.84461965 -0.9071729 3.13920894 -0.752405043 2.66285179 -1.15740504 2.36874465 -0.656940757 2.36874465 -0.502655043 1.89238751"></polyline>
                <polyline id="Fill-2164" fill="#FFFFFF" mask="url(#mask-2)" points="-0.502655043 3.99501251 -0.347405043 4.47185179 0.153059243 4.47185179 -0.251940757 4.76547679 -0.0976550425 5.24183394 -0.502655043 4.94724465 -0.9071729 5.24183394 -0.752405043 4.76547679 -1.15740504 4.47185179 -0.656940757 4.47185179 -0.502655043 3.99501251"></polyline>
                <polyline id="Fill-2165" fill="#FFFFFF" mask="url(#mask-2)" points="-0.502655043 6.09908394 -0.347405043 6.57447679 0.153059243 6.57447679 -0.251940757 6.86906608 -0.0976550425 7.34494108 -0.502655043 7.05083394 -0.9071729 7.34494108 -0.752405043 6.86906608 -1.15740504 6.57447679 -0.656940757 6.57447679 -0.502655043 6.09908394"></polyline>
                <polyline id="Fill-2166" fill="#FFFFFF" mask="url(#mask-2)" points="-0.502655043 8.20170894 -0.347405043 8.67710179 0.153059243 8.67710179 -0.251940757 8.97217322 -0.0976550425 9.44756608 -0.502655043 9.15394108 -0.9071729 9.44756608 -0.752405043 8.97217322 -1.15740504 8.67710179 -0.656940757 8.67710179 -0.502655043 8.20170894"></polyline>
                <polyline id="Fill-2167" fill="#FFFFFF" mask="url(#mask-2)" points="0.9625771 0.897726792 1.11734496 1.37360179 1.6173271 1.37360179 1.2123271 1.66819108 1.36709496 2.14358394 0.9625771 1.84995894 0.5575771 2.14358394 0.711862815 1.66819108 0.307344957 1.37360179 0.8073271 1.37360179 0.9625771 0.897726792"></polyline>
                <polyline id="Fill-2168" fill="#FFFFFF" mask="url(#mask-2)" points="0.9625771 3.00083394 1.11734496 3.47622679 1.6173271 3.47622679 1.2123271 3.77081608 1.36709496 4.24669108 0.9625771 3.95258394 0.5575771 4.24669108 0.711862815 3.77081608 0.307344957 3.47622679 0.8073271 3.47622679 0.9625771 3.00083394"></polyline>
                <polyline id="Fill-2169" fill="#FFFFFF" mask="url(#mask-2)" points="0.9625771 5.10345894 1.11734496 5.57885179 1.6173271 5.57885179 1.2123271 5.87392322 1.36709496 6.34931608 0.9625771 6.05569108 0.5575771 6.34931608 0.711862815 5.87392322 0.307344957 5.57885179 0.8073271 5.57885179 0.9625771 5.10345894"></polyline>
                <polyline id="Fill-2170" fill="#FFFFFF" mask="url(#mask-2)" points="0.9625771 7.20608394 1.11734496 7.68195894 1.6173271 7.68195894 1.2123271 7.97654822 1.36709496 8.45194108 0.9625771 8.15831608 0.5575771 8.45194108 0.711862815 7.97654822 0.307344957 7.68195894 0.8073271 7.68195894 0.9625771 7.20608394"></polyline>
                <polyline id="Fill-2171" fill="#FFFFFF" mask="url(#mask-2)" points="2.44564853 -0.210237493 2.60041639 0.26611965 3.10088067 0.26611965 2.69588067 0.55974465 2.85064853 1.03658394 2.44564853 0.741512507 2.04064853 1.03658394 2.19541639 0.55974465 1.79041639 0.26611965 2.29088067 0.26611965 2.44564853 -0.210237493"></polyline>
                <polyline id="Fill-2172" fill="#FFFFFF" mask="url(#mask-2)" points="2.44564853 1.89238751 2.60041639 2.36874465 3.10088067 2.36874465 2.69588067 2.66285179 2.85064853 3.13920894 2.44564853 2.84461965 2.04064853 3.13920894 2.19541639 2.66285179 1.79041639 2.36874465 2.29088067 2.36874465 2.44564853 1.89238751"></polyline>
                <polyline id="Fill-2173" fill="#FFFFFF" mask="url(#mask-2)" points="2.44564853 3.99501251 2.60041639 4.47185179 3.10088067 4.47185179 2.69588067 4.76547679 2.85064853 5.24183394 2.44564853 4.94724465 2.04064853 5.24183394 2.19541639 4.76547679 1.79041639 4.47185179 2.29088067 4.47185179 2.44564853 3.99501251"></polyline>
                <polyline id="Fill-2174" fill="#FFFFFF" mask="url(#mask-2)" points="2.44564853 6.09908394 2.60041639 6.57447679 3.10088067 6.57447679 2.69588067 6.86906608 2.85064853 7.34494108 2.44564853 7.05083394 2.04064853 7.34494108 2.19541639 6.86906608 1.79041639 6.57447679 2.29088067 6.57447679 2.44564853 6.09908394"></polyline>
                <polyline id="Fill-2175" fill="#FFFFFF" mask="url(#mask-2)" points="2.44564853 8.20170894 2.60041639 8.67710179 3.10088067 8.67710179 2.69588067 8.97217322 2.85064853 9.44756608 2.44564853 9.15394108 2.04064853 9.44756608 2.19541639 8.97217322 1.79041639 8.67710179 2.29088067 8.67710179 2.44564853 8.20170894"></polyline>
                <polyline id="Fill-2176" fill="#FFFFFF" mask="url(#mask-2)" points="3.91039853 0.897726792 4.06468424 1.37360179 4.56514853 1.37360179 4.16014853 1.66819108 4.31539853 2.14358394 3.91039853 1.84995894 3.50491639 2.14358394 3.65968424 1.66819108 3.25468424 1.37360179 3.75563067 1.37360179 3.91039853 0.897726792"></polyline>
                <polyline id="Fill-2177" fill="#FFFFFF" mask="url(#mask-2)" points="3.91039853 3.00083394 4.06468424 3.47622679 4.56514853 3.47622679 4.16014853 3.77081608 4.31539853 4.24669108 3.91039853 3.95258394 3.50491639 4.24669108 3.65968424 3.77081608 3.25468424 3.47622679 3.75563067 3.47622679 3.91039853 3.00083394"></polyline>
                <polyline id="Fill-2178" fill="#FFFFFF" mask="url(#mask-2)" points="3.91039853 5.10345894 4.06468424 5.57885179 4.56514853 5.57885179 4.16014853 5.87392322 4.31539853 6.34931608 3.91039853 6.05569108 3.50491639 6.34931608 3.65968424 5.87392322 3.25468424 5.57885179 3.75563067 5.57885179 3.91039853 5.10345894"></polyline>
                <polyline id="Fill-2179" fill="#FFFFFF" mask="url(#mask-2)" points="3.91039853 7.20608394 4.06468424 7.68195894 4.56514853 7.68195894 4.16014853 7.97654822 4.31539853 8.45194108 3.91039853 8.15831608 3.50491639 8.45194108 3.65968424 7.97654822 3.25468424 7.68195894 3.75563067 7.68195894 3.91039853 7.20608394"></polyline>
                <polyline id="Fill-2180" fill="#FFFFFF" mask="url(#mask-2)" points="5.39346996 -0.210237493 5.54823781 0.26611965 6.0487021 0.26611965 5.64418424 0.55974465 5.79846996 1.03658394 5.39346996 0.741512507 4.98846996 1.03658394 5.14275567 0.55974465 4.73823781 0.26611965 5.2387021 0.26611965 5.39346996 -0.210237493"></polyline>
                <polyline id="Fill-2181" fill="#FFFFFF" mask="url(#mask-2)" points="5.39346996 1.89238751 5.54823781 2.36874465 6.0487021 2.36874465 5.64418424 2.66285179 5.79846996 3.13920894 5.39346996 2.84461965 4.98846996 3.13920894 5.14275567 2.66285179 4.73823781 2.36874465 5.2387021 2.36874465 5.39346996 1.89238751"></polyline>
                <polyline id="Fill-2182" fill="#FFFFFF" mask="url(#mask-2)" points="5.39346996 3.99501251 5.54823781 4.47185179 6.0487021 4.47185179 5.64418424 4.76547679 5.79846996 5.24183394 5.39346996 4.94724465 4.98846996 5.24183394 5.14275567 4.76547679 4.73823781 4.47185179 5.2387021 4.47185179 5.39346996 3.99501251"></polyline>
                <polyline id="Fill-2183" fill="#FFFFFF" mask="url(#mask-2)" points="5.39346996 6.09908394 5.54823781 6.57447679 6.0487021 6.57447679 5.64418424 6.86906608 5.79846996 7.34494108 5.39346996 7.05083394 4.98846996 7.34494108 5.14275567 6.86906608 4.73823781 6.57447679 5.2387021 6.57447679 5.39346996 6.09908394"></polyline>
                <polyline id="Fill-2184" fill="#FFFFFF" mask="url(#mask-2)" points="5.39346996 8.20170894 5.54823781 8.67710179 6.0487021 8.67710179 5.64418424 8.97217322 5.79846996 9.44756608 5.39346996 9.15394108 4.98846996 9.44756608 5.14275567 8.97217322 4.73823781 8.67710179 5.2387021 8.67710179 5.39346996 8.20170894"></polyline>
                <polyline id="Fill-2185" fill="#FFFFFF" mask="url(#mask-2)" points="6.85773781 0.897726792 7.01250567 1.37360179 7.51296996 1.37360179 7.1084521 1.66819108 7.26273781 2.14358394 6.85773781 1.84995894 6.45273781 2.14358394 6.60750567 1.66819108 6.20298781 1.37360179 6.7034521 1.37360179 6.85773781 0.897726792"></polyline>
                <polyline id="Fill-2186" fill="#FFFFFF" mask="url(#mask-2)" points="6.85773781 3.00083394 7.01250567 3.47622679 7.51296996 3.47622679 7.1084521 3.77081608 7.26273781 4.24669108 6.85773781 3.95258394 6.45273781 4.24669108 6.60750567 3.77081608 6.20298781 3.47622679 6.7034521 3.47622679 6.85773781 3.00083394"></polyline>
                <polyline id="Fill-2187" fill="#FFFFFF" mask="url(#mask-2)" points="6.85773781 5.10345894 7.01250567 5.57885179 7.51296996 5.57885179 7.1084521 5.87392322 7.26273781 6.34931608 6.85773781 6.05569108 6.45273781 6.34931608 6.60750567 5.87392322 6.20298781 5.57885179 6.7034521 5.57885179 6.85773781 5.10345894"></polyline>
                <polyline id="Fill-2188" fill="#FFFFFF" mask="url(#mask-2)" points="6.85773781 7.20608394 7.01250567 7.68195894 7.51296996 7.68195894 7.1084521 7.97654822 7.26273781 8.45194108 6.85773781 8.15831608 6.45273781 8.45194108 6.60750567 7.97654822 6.20298781 7.68195894 6.7034521 7.68195894 6.85773781 7.20608394"></polyline>
                <polyline id="Fill-2189" fill="#FFFFFF" mask="url(#mask-2)" points="8.34080924 -0.210237493 8.49605924 0.26611965 8.99652353 0.26611965 8.59152353 0.55974465 8.74629139 1.03658394 8.34080924 0.741512507 7.93580924 1.03658394 8.09105924 0.55974465 7.68605924 0.26611965 8.18652353 0.26611965 8.34080924 -0.210237493"></polyline>
                <polyline id="Fill-2190" fill="#FFFFFF" mask="url(#mask-2)" points="8.34080924 1.89238751 8.49605924 2.36874465 8.99652353 2.36874465 8.59152353 2.66285179 8.74629139 3.13920894 8.34080924 2.84461965 7.93580924 3.13920894 8.09105924 2.66285179 7.68605924 2.36874465 8.18652353 2.36874465 8.34080924 1.89238751"></polyline>
                <polyline id="Fill-2191" fill="#FFFFFF" mask="url(#mask-2)" points="8.34080924 3.99501251 8.49605924 4.47185179 8.99652353 4.47185179 8.59152353 4.76547679 8.74629139 5.24183394 8.34080924 4.94724465 7.93580924 5.24183394 8.09105924 4.76547679 7.68605924 4.47185179 8.18652353 4.47185179 8.34080924 3.99501251"></polyline>
                <polyline id="Fill-2192" fill="#FFFFFF" mask="url(#mask-2)" points="8.34080924 6.09908394 8.49605924 6.57447679 8.99652353 6.57447679 8.59152353 6.86906608 8.74629139 7.34494108 8.34080924 7.05083394 7.93580924 7.34494108 8.09105924 6.86906608 7.68605924 6.57447679 8.18652353 6.57447679 8.34080924 6.09908394"></polyline>
                <polyline id="Fill-2193" fill="#FFFFFF" mask="url(#mask-2)" points="8.34080924 8.20170894 8.49605924 8.67710179 8.99652353 8.67710179 8.59152353 8.97217322 8.74629139 9.44756608 8.34080924 9.15394108 7.93580924 9.44756608 8.09105924 8.97217322 7.68605924 8.67710179 8.18652353 8.67710179 8.34080924 8.20170894"></polyline>
            </g>
        </g>
    </g>
</svg>