<?xml version="1.0" encoding="UTF-8"?>
<svg width="20px" height="20px" viewBox="0 0 20 20" version="1.1" xmlns="http://www.w3.org/2000/svg" xmlns:xlink="http://www.w3.org/1999/xlink">
    <!-- Generator: Sketch 52.5 (67469) - http://www.bohemiancoding.com/sketch -->
    <title>加拿大</title>
    <desc>Created with Sketch.</desc>
    <defs>
        <path d="M10,19 C14.9705627,19 19,14.9705627 19,10 C19,5.02943725 14.9705627,1 10,1 C5.02943725,1 1,5.02943725 1,10 C1,14.9705627 5.02943725,19 10,19 Z" id="path-1"></path>
    </defs>
    <g id="控制台界面" stroke="none" stroke-width="1" fill="none" fill-rule="evenodd">
        <g id="画板" transform="translate(-567.000000, -680.000000)">
            <g id="加拿大" transform="translate(567.000000, 680.000000)">
                <path d="M10,20 C4.4771525,20 0,15.5228475 0,10 C0,4.4771525 4.4771525,0 10,0 C15.5228475,0 20,4.4771525 20,10 C20,15.5228475 15.5228475,20 10,20 Z" id="路径" fill="#E5E5E5" fill-rule="nonzero"></path>
                <mask id="mask-2" fill="white">
                    <use xlink:href="#path-1"></use>
                </mask>
                <use id="路径" fill="#FFFFFF" fill-rule="nonzero" xlink:href="#path-1"></use>
                <rect id="矩形" fill="#E1001F" fill-rule="nonzero" mask="url(#mask-2)" x="15.625" y="-0.125" width="4.5" height="20.25"></rect>
                <rect id="矩形-copy" fill="#E1001F" fill-rule="nonzero" mask="url(#mask-2)" x="-0.125" y="-0.125" width="4.5" height="20.25"></rect>
                <g id="分组-4" mask="url(#mask-2)" fill="#E1001F">
                    <g transform="translate(5.500000, 4.562500)" id="Fill-771">
                        <path d="M4.49986607,0.458705357 L3.72709821,1.9603125 C3.63950893,2.12370536 3.48227679,2.1084375 3.32504464,2.01709821 L2.76575893,1.71522321 L3.1828125,4.02227679 C3.27040179,4.44361607 2.98888393,4.44361607 2.85040179,4.26120536 L1.87379464,3.12227679 L1.71522321,3.70058036 C1.69700893,3.77691964 1.61665179,3.85647321 1.49611607,3.83745536 L0.2615625,3.56691964 L0.5859375,4.7953125 C0.6553125,5.06879464 0.709419643,5.18209821 0.515758929,5.25415179 L0.0756696429,5.46950893 L2.20111607,7.2684375 C2.28495536,7.33647321 2.3278125,7.45888393 2.29754464,7.56950893 L2.11165179,8.20566964 C2.84316964,8.11754464 3.4996875,8.0390625 4.23120536,7.95147321 C4.29602679,7.95013393 4.40397321,8.00799107 4.40370536,8.0859375 L4.30647321,10.4162946 L4.6621875,10.4162946 L4.60620536,8.09102679 C4.60566964,8.01308036 4.70370536,7.95013393 4.76879464,7.95147321 C5.5003125,8.0390625 6.1565625,8.11754464 6.88834821,8.20566964 L6.70245536,7.56950893 C6.6721875,7.45888393 6.71504464,7.33647321 6.79888393,7.2684375 L8.92433036,5.46950893 L8.48397321,5.25415179 C8.2903125,5.18209821 8.34441964,5.06879464 8.4140625,4.7953125 L8.73816964,3.56691964 L7.50388393,3.83745536 C7.38334821,3.85647321 7.30272321,3.77691964 7.28450893,3.70058036 L7.1259375,3.12227679 L6.14959821,4.26120536 C6.01084821,4.44361607 5.72959821,4.44361607 5.8171875,4.02227679 L6.23424107,1.71522321 L5.6746875,2.01709821 C5.51772321,2.1084375 5.36049107,2.12370536 5.27290179,1.9603125 L4.49986607,0.458705357"></path>
                    </g>
                </g>
            </g>
        </g>
    </g>
</svg>