<?xml version="1.0" encoding="UTF-8"?>
<svg width="20px" height="20px" viewBox="0 0 20 20" version="1.1" xmlns="http://www.w3.org/2000/svg" xmlns:xlink="http://www.w3.org/1999/xlink">
    <!-- Generator: Sketch 52.5 (67469) - http://www.bohemiancoding.com/sketch -->
    <title>中国</title>
    <desc>Created with Sketch.</desc>
    <g id="控制台界面" stroke="none" stroke-width="1" fill="none" fill-rule="evenodd">
        <g id="画板" transform="translate(-490.000000, -680.000000)">
            <g id="中国" transform="translate(490.000000, 680.000000)">
                <path d="M10,20 C4.4771525,20 0,15.5228475 0,10 C0,4.4771525 4.4771525,0 10,0 C15.5228475,0 20,4.4771525 20,10 C20,15.5228475 15.5228475,20 10,20 Z" id="路径" fill="#E5E5E5" fill-rule="nonzero"></path>
                <path d="M10,19 C14.9705627,19 19,14.9705627 19,10 C19,5.02943725 14.9705627,1 10,1 C5.02943725,1 1,5.02943725 1,10 C1,14.9705627 5.02943725,19 10,19 Z" id="路径" fill="#E1001F" fill-rule="nonzero"></path>
                <path d="M4.78890625,11.9359375 L5.5215625,9.66578125 L3.5959375,8.25859375 L5.9809375,8.25390625 L6.724375,5.9875 L7.46546875,8.25484375 L9.8509375,8.26140625 L7.92390625,9.66671875 L8.6546875,11.9373437 L6.7225,10.5385937 L4.78890625,11.9359375 Z M11.4390625,13.1626562 L12.2434375,13.485625 L12.803125,12.8228125 L12.7440625,13.688125 L13.5475,14.0153125 L12.7065625,14.2271875 L12.6432812,15.0915625 L12.1820312,14.3570312 L11.340625,14.5646875 L11.8965625,13.8990625 L11.4390625,13.1626562 Z M15.7951562,8.80140625 L14.940625,8.6528125 L14.5314062,9.41734375 L14.4090625,8.5590625 L13.5554687,8.40578125 L14.3340625,8.02421875 L14.2154687,7.165 L14.8192187,7.7875 L15.6001562,7.4096875 L15.1942187,8.17609375 L15.7951562,8.80140625 Z M13.980625,12.6873437 L14.2473437,11.8623437 L13.5470312,11.3504687 L14.4142187,11.3485937 L14.6842187,10.5245312 L14.9542187,11.3490625 L15.8214062,11.3514062 L15.120625,11.8623437 L15.3864062,12.6878125 L14.68375,12.1792187 L13.980625,12.6873437 Z M11.4807812,5.14890625 L12.2678125,5.51453125 L12.86125,4.88125 L12.7571875,5.74234375 L13.5423437,6.11125 L12.690625,6.278125 L12.5828125,7.13875 L12.1614062,6.38078125 L11.3092187,6.544375 L11.899375,5.90875 L11.4807812,5.14890625 Z" id="合并形状" fill="#FCD116"></path>
            </g>
        </g>
    </g>
</svg>