<?xml version="1.0" encoding="UTF-8"?>
<svg width="20px" height="20px" viewBox="0 0 20 20" version="1.1" xmlns="http://www.w3.org/2000/svg" xmlns:xlink="http://www.w3.org/1999/xlink">
    <!-- Generator: Sketch 52.5 (67469) - http://www.bohemiancoding.com/sketch -->
    <title>香港</title>
    <desc>Created with Sketch.</desc>
    <g id="控制台界面" stroke="none" stroke-width="1" fill="none" fill-rule="evenodd">
        <g id="画板" transform="translate(-515.000000, -680.000000)">
            <g id="香港" transform="translate(515.000000, 680.000000)">
                <path d="M10,20 C4.4771525,20 0,15.5228475 0,10 C0,4.4771525 4.4771525,0 10,0 C15.5228475,0 20,4.4771525 20,10 C20,15.5228475 15.5228475,20 10,20 Z" id="路径" fill="#E5E5E5" fill-rule="nonzero"></path>
                <path d="M10,19 C14.9705627,19 19,14.9705627 19,10 C19,5.02943725 14.9705627,1 10,1 C5.02943725,1 1,5.02943725 1,10 C1,14.9705627 5.02943725,19 10,19 Z" id="路径" fill="#E1001F" fill-rule="nonzero"></path>
                <g id="分组-10" transform="translate(4.375000, 4.375000)">
                    <path d="M5.32101748,5.77285221 C3.80668713,5.16173613 3.07463355,3.43847721 3.68615141,1.92414685 C4.17271391,0.718789706 5.38932105,-0.0277281509 6.6846782,0.0851736348 C6.20494605,0.321423635 5.89275855,0.896780778 6.28691034,1.49222721 C6.71963355,2.14512899 6.47816034,3.24762899 5.63762463,3.64218256 C4.98231213,3.94995042 4.44833891,4.97410221 5.32101748,5.77285221 Z M5.32101748,5.77285221 C5.43432105,4.14401292 6.84699963,2.91535221 8.47583891,3.02865578 C9.77320498,3.11905756 10.85883,4.04597721 11.1517318,5.31240578 C10.7792764,4.92870042 10.1352139,4.80937006 9.69083891,5.36905756 C9.20347284,5.98178078 8.08007998,6.09307542 7.44485677,5.41526292 C6.95025855,4.88771828 5.81119605,4.69646828 5.32101748,5.77285221 Z M5.32101748,5.77285221 C4.27195498,7.02401292 2.4068657,7.18794149 1.15570498,6.13887899 C0.159276411,5.30396828 -0.174607518,3.91539685 0.333249625,2.71847721 C0.409187125,3.24762899 0.859990697,3.72253971 1.54824963,3.53169149 C2.3028032,3.32155756 3.27713355,3.89209328 3.39244605,4.81419149 C3.48284784,5.53218256 4.29164248,6.35624506 5.32101748,5.77285221 Z M5.32101748,5.77285221 C6.90525855,5.37749506 8.51039248,6.34137899 8.90615141,7.92562006 C9.22115141,9.18682542 8.67552641,10.5058879 7.56137463,11.1760665 C7.81048177,10.7035665 7.72490141,10.053879 7.0559282,9.80437006 C6.32226748,9.53035221 5.86945498,8.49615578 6.31744605,7.68213792 C6.66659784,7.04812006 6.49704427,5.90664685 5.32101748,5.77285221 Z M5.32101748,5.77285221 C6.1868657,7.15740578 5.76619605,8.98191471 4.38164248,9.84776292 C3.27954427,10.5372272 1.85641927,10.4259326 0.875258554,9.57253971 C1.40159784,9.66414685 1.99262463,9.38209328 2.02356213,8.66852185 C2.05731213,7.88624506 2.90106213,7.13611113 3.8131157,7.31048613 C4.52347284,7.44709328 5.55766927,6.93200399 5.32101748,5.77285221 Z" id="形状" fill="#FFFFFF"></path>
                    <path d="M5.28766118,5.81061458 C4.21579794,6.69948187 2.71779437,6.14971637 2.16025374,5.40817939 L2.22574481,5.35434011 C2.83791249,6.13642204 4.25814234,6.55016883 5.23491627,5.74327689 C4.05900508,4.99757395 4.11921665,3.40400488 4.65172695,2.64429546 L4.72364659,2.69009904 C4.16850232,3.51407927 4.21343974,4.99347903 5.28358486,5.6725521 C5.62838711,4.32371523 7.16341663,3.88821646 8.05003052,4.15983118 L8.02873588,4.24219725 C7.07377714,3.96940862 5.68127672,4.46889087 5.36524693,5.6968214 C6.75446349,5.60738943 7.64322993,6.93268843 7.65909302,7.86067939 L7.57431624,7.86550082 C7.53857886,6.87279583 6.63281675,5.70271096 5.36781403,5.7817185 C5.88184093,7.07532822 4.89616151,8.33070301 4.01891445,8.63210796 L3.98757516,8.55295618 C4.92067248,8.21227639 5.75370903,6.98909984 5.28766118,5.81061458 Z M4.91811088,2.09947404 L4.84136981,1.75393832 L5.10695016,1.98858118 L5.41190552,1.80858118 L5.27087874,2.13362582 L5.53565552,2.36826868 L5.18328945,2.33451868 L5.04226266,2.65835796 L4.96552159,2.31322404 L4.61275374,2.27947404 L4.91811088,2.09947404 Z M8.46266445,4.35590261 L8.38592338,4.01036689 L8.65150374,4.24500975 L8.95645909,4.06500975 L8.81543231,4.39005439 L9.08020909,4.62469725 L8.72784302,4.59094725 L8.58681624,4.91478654 L8.51007516,4.56965261 L8.15730731,4.53590261 L8.46266445,4.35590261 Z M1.67690552,4.77335796 L1.60016445,4.42782225 L1.86574481,4.66246511 L2.17070016,4.48246511 L2.02967338,4.80750975 L2.29445016,5.04215261 L1.94208409,5.00840261 L1.80105731,5.33224189 L1.72431624,4.98710796 L1.37154838,4.95335796 L1.67690552,4.77335796 Z M7.41199481,8.42478654 L7.33525374,8.07925082 L7.60083409,8.31389368 L7.90578945,8.13389368 L7.76476266,8.45893832 L8.02953945,8.69358118 L7.67717338,8.65983118 L7.53614659,8.98367046 L7.45940552,8.63853654 L7.10663766,8.60478654 L7.41199481,8.42478654 Z M3.21815552,8.68192939 L3.14141445,8.33639368 L3.40699481,8.57103654 L3.71195016,8.39103654 L3.57092338,8.71608118 L3.83570016,8.95072404 L3.48333409,8.91697404 L3.34230731,9.24081332 L3.26556624,8.89567939 L2.91279838,8.86192939 L3.21815552,8.68192939 Z" id="形状" fill="#CB1D23"></path>
                </g>
            </g>
        </g>
    </g>
</svg>