<?xml version="1.0" encoding="UTF-8"?>
<svg width="20px" height="20px" viewBox="0 0 20 20" version="1.1" xmlns="http://www.w3.org/2000/svg" xmlns:xlink="http://www.w3.org/1999/xlink">
    <!-- Generator: Sketch 52.5 (67469) - http://www.bohemiancoding.com/sketch -->
    <title>印度</title>
    <desc>Created with Sketch.</desc>
    <defs>
        <path d="M10,19 C14.9705627,19 19,14.9705627 19,10 C19,5.02943725 14.9705627,1 10,1 C5.02943725,1 1,5.02943725 1,10 C1,14.9705627 5.02943725,19 10,19 Z" id="path-1"></path>
    </defs>
    <g id="控制台界面" stroke="none" stroke-width="1" fill="none" fill-rule="evenodd">
        <g id="画板" transform="translate(-645.000000, -680.000000)">
            <g id="印度" transform="translate(645.000000, 680.000000)">
                <path d="M10,20 C4.4771525,20 0,15.5228475 0,10 C0,4.4771525 4.4771525,-1.77635684e-15 10,-1.77635684e-15 C15.5228475,-1.77635684e-15 20,4.4771525 20,10 C20,15.5228475 15.5228475,20 10,20 Z" id="路径" fill="#E5E5E5" fill-rule="nonzero"></path>
                <mask id="mask-2" fill="white">
                    <use xlink:href="#path-1"></use>
                </mask>
                <use id="路径" fill="#F2F2F2" fill-rule="nonzero" xlink:href="#path-1"></use>
                <polygon id="Fill-446" fill="#F38D2C" mask="url(#mask-2)" points="-0.125 6.625 20.125 6.625 20.125 -0.125 -0.125 -0.125"></polygon>
                <polygon id="Fill-447" fill="#FFFFFF" mask="url(#mask-2)" points="-0.125 13.375 20.125 13.375 20.125 6.625 -0.125 6.625"></polygon>
                <path d="M10,7.18788639 C11.5528833,7.18788639 12.8117272,8.44711671 12.8125,10 C12.8125,11.5532697 11.5528833,12.8121136 10,12.8121136 C8.44673032,12.8121136 7.1875,11.5532697 7.1875,10 C7.1875,8.44711671 8.44673032,7.18788639 10,7.18788639 Z M9.99221734,9.58011646 L9.92581399,8.87407267 L9.99690892,7.4618337 C9.92581399,7.46222009 9.85510544,7.46492478 9.78478328,7.47110695 C9.78555605,7.47535719 9.78555605,7.47960743 9.78555605,7.48385767 C9.78555605,7.54799766 9.73339401,7.60054609 9.66925402,7.60054609 C9.61052342,7.60054609 9.56222524,7.55727092 9.55411114,7.50085863 C9.48378898,7.51322297 9.41501236,7.52906478 9.34700852,7.54683851 L9.7816922,8.89300556 L9.90076238,9.59220464 C9.89469924,9.59369187 9.88868808,9.59530936 9.88273205,9.597054 L9.63679764,8.93164411 L9.34043996,7.54915682 C9.27089058,7.56770332 9.20134119,7.58934091 9.1344965,7.61329681 C9.14029228,7.62797946 9.14415613,7.64420765 9.14415613,7.66082223 C9.14415613,7.72496222 9.09122132,7.77673788 9.02708133,7.77673788 C8.97801037,7.77673788 8.93589435,7.74659981 8.91927978,7.70371102 C8.85591256,7.73307632 8.79409088,7.76514631 8.73381474,7.79992101 L9.50272187,8.98728362 L9.79850636,9.63204638 C9.79304587,9.63504728 9.7876596,9.6381653 9.78235095,9.64139709 L9.3713508,9.06301518 L8.72763257,7.80339848 C8.66658367,7.83933233 8.60669391,7.87758449 8.54873609,7.91815497 C8.56303235,7.93747424 8.57076006,7.96143014 8.57076006,7.98731797 C8.57076006,8.05145796 8.51937079,8.10323362 8.4552308,8.10323362 C8.41813779,8.10323362 8.38568141,8.08584627 8.36443021,8.05957206 C8.31033624,8.10516554 8.2581742,8.15346373 8.2075577,8.20330746 L9.25736708,9.15111107 L9.70994515,9.69704605 C9.70541322,9.70138457 9.70097857,9.70582341 9.69664473,9.71035905 L9.1503383,9.25775347 L8.2021483,8.20794409 C8.15269096,8.25778781 8.10516554,8.30956347 8.05957206,8.36327105 C8.08700543,8.38452226 8.10516554,8.41775141 8.10516554,8.4552308 C8.10516554,8.51937079 8.0530035,8.57076006 7.98886351,8.57076006 C7.96220291,8.57076006 7.93824701,8.56264597 7.91854135,8.54757693 C7.87797088,8.60630753 7.83933233,8.66581089 7.80301209,8.72763257 L9.0626288,9.37173719 L9.6414449,9.78222585 C9.63822813,9.78750743 9.63512472,9.79286579 9.63213801,9.79829762 L8.98728362,9.5019491 L7.79992101,8.73381474 C7.76475993,8.79486365 7.73230354,8.85823087 7.70216548,8.92237086 C7.74273595,8.94053098 7.77132848,8.98226061 7.77132848,9.02978603 C7.77132848,9.09392602 7.71993921,9.14531529 7.65502645,9.14531529 C7.64073018,9.14531529 7.62566115,9.14222421 7.61291043,9.13681481 C7.58895453,9.20327311 7.56770332,9.27127696 7.54877044,9.34005358 L8.9320305,9.63641125 L9.59719051,9.88250353 C9.59545936,9.88843652 9.5938553,9.8944243 9.59238145,9.90046376 L8.89300556,9.78130581 L7.54645212,9.34662213 C7.528292,9.41462598 7.51322297,9.4834026 7.50047225,9.55333837 C7.56074839,9.55874777 7.60750103,9.6085915 7.60750103,9.6696404 C7.60750103,9.7337804 7.5549526,9.78594244 7.49081261,9.78594244 C7.48385767,9.78594244 7.4776755,9.78516967 7.47110695,9.7843969 C7.46569755,9.85471905 7.4618337,9.9254276 7.46144731,9.9972953 L8.87407267,9.92465483 L9.58050177,9.99075544 C9.5804243,9.99408493 9.58038536,9.99742418 9.58038536,10.0007728 C9.58038536,10.0035885 9.58041299,10.0063977 9.58046799,10.0092003 L8.87407267,10.0749588 L7.46144731,10.0030911 C7.4618337,10.0749588 7.46569755,10.1456673 7.47110695,10.2159895 C7.47574358,10.2159895 7.47922105,10.2152167 7.48385767,10.2152167 C7.54799766,10.2152167 7.60015971,10.2673788 7.60015971,10.3315188 C7.60015971,10.3902493 7.55727092,10.4385475 7.50047225,10.447048 C7.51322297,10.5169838 7.528292,10.5857604 7.54645212,10.654537 L8.89300556,10.2190806 L9.5919785,10.0993146 C9.59343187,10.1053756 9.59501637,10.1113856 9.59672885,10.1173415 L8.93125773,10.3639751 L7.54877044,10.6603328 C7.56770332,10.730655 7.58934091,10.7994316 7.6136832,10.8674354 C7.62875223,10.8604805 7.64536681,10.8558439 7.66352693,10.8558439 C7.72766692,10.8558439 7.77982896,10.9087787 7.77982896,10.9729187 C7.77982896,11.0227624 7.74814535,11.0648784 7.70332463,11.081493 C7.73384909,11.1440874 7.7655327,11.2062955 7.79992101,11.2665716 L8.98728362,10.4980509 L9.63150915,10.2020188 C9.63447634,10.2074596 9.63756023,10.2128278 9.64075748,10.21812 L9.0626288,10.6282628 L7.80301209,11.271981 C7.83933233,11.3338027 7.8771981,11.3940789 7.91776858,11.4520367 C7.93747424,11.4377404 7.96065737,11.4288536 7.98731797,11.4288536 C8.05145796,11.4288536 8.10284723,11.4806292 8.10284723,11.5451556 C8.10284723,11.5810894 8.08545988,11.6143186 8.05879929,11.6355698 C8.10516554,11.6900501 8.15346373,11.7418258 8.20292107,11.7924423 L9.15111107,10.7434057 L9.69610379,10.2906529 C9.70054379,10.2953254 9.70509019,10.2998963 9.70973913,10.3043616 L9.25736708,10.8500481 L8.2075577,11.7978517 C8.25662866,11.8469227 8.3087907,11.8936753 8.3621119,11.9388824 C8.3833631,11.9126082 8.41581948,11.8952208 8.45213972,11.8952208 C8.51705248,11.8952208 8.56921452,11.9469965 8.56921452,12.0115229 C8.56921452,12.0377971 8.55994127,12.0609802 8.54641778,12.0806859 C8.60514837,12.1216427 8.66581089,12.1606677 8.72763257,12.1962151 L9.3713508,10.9373712 L9.78134857,10.3597239 C9.78671338,10.3630192 9.79215797,10.3661981 9.79767883,10.3692569 L9.5019491,11.0131028 L8.73381474,12.200079 C8.79486365,12.2356265 8.85823087,12.2680828 8.92237086,12.2982209 C8.94053098,12.257264 8.98187423,12.2286715 9.02939964,12.2286715 C9.09353963,12.2286715 9.14492891,12.2808336 9.14492891,12.3449736 C9.14492891,12.3600426 9.14183782,12.3743389 9.13642842,12.3870896 C9.20288673,12.4114319 9.27089058,12.4322967 9.33966719,12.4512296 L9.63602487,11.0679695 L9.88173414,10.4045207 C9.88772974,10.4062991 9.8937815,10.4079483 9.8998862,10.4094649 L9.78091943,11.1073808 L9.34623575,12.4527751 C9.41269405,12.4709352 9.4806979,12.4860043 9.54947452,12.498755 C9.55758861,12.4431155 9.6058868,12.3998403 9.66500378,12.3998403 C9.72914377,12.3998403 9.78091943,12.4520023 9.78091943,12.5161423 C9.78091943,12.520779 9.78091943,12.5246428 9.78014665,12.5281203 C9.85201436,12.5343024 9.92388206,12.5381663 9.99690892,12.5381663 L9.92465483,11.1263137 L9.99051565,10.4217718 C9.99443658,10.421879 9.99837104,10.421933 10.0023183,10.421933 C10.0047148,10.421933 10.0071067,10.4219129 10.0094938,10.4218729 L10.0753452,11.1263137 L10.0030911,12.5381663 C10.0745724,12.5381663 10.1456673,12.5343024 10.2156031,12.5281203 C10.2156031,12.5246428 10.2148303,12.520779 10.2148303,12.5161423 C10.2148303,12.4520023 10.2669924,12.3998403 10.3311324,12.3998403 C10.3894766,12.3998403 10.4385475,12.4431155 10.4466616,12.4995278 C10.5169838,12.486777 10.5861468,12.4709352 10.6541506,12.4527751 L10.219467,11.1066081 L10.099808,10.4105639 C10.1061672,10.4090536 10.112471,10.4073988 10.1187157,10.4056032 L10.3643615,11.0679695 L10.6603328,12.4512296 C10.7298822,12.4322967 10.7982724,12.4106591 10.8647307,12.3863168 C10.8600941,12.3735661 10.8573894,12.3600426 10.8573894,12.3449736 C10.8573894,12.2808336 10.9091651,12.2286715 10.9733051,12.2286715 C11.0200577,12.2286715 11.0610146,12.2564913 11.0791747,12.2974481 C11.1425419,12.2680828 11.2051364,12.2356265 11.2654125,12.2008518 L10.4980509,11.0131028 L10.2025754,10.3712774 C10.2083713,10.3681352 10.2140855,10.364861 10.219714,10.3614587 L10.6278764,10.938144 L11.2723674,12.1962151 C11.3365074,12.1591221 11.3991019,12.1193244 11.4601508,12.0764356 C11.4531958,12.0609802 11.4497184,12.044752 11.4497184,12.0273647 C11.4497184,11.9632247 11.501494,11.9110626 11.5660204,11.9110626 C11.5930674,11.9110626 11.6185688,11.9207223 11.6390473,11.9373369 C11.6919821,11.8929025 11.742985,11.8461499 11.7924423,11.7978517 L10.7426329,10.8500481 L10.2924557,10.305915 C10.2970294,10.3015652 10.3015056,10.2971137 10.3058807,10.2925642 L10.8496617,10.7434057 L11.7974653,11.7924423 C11.8465363,11.7425986 11.8925161,11.6912093 11.9377232,11.6378881 C11.9122218,11.6166369 11.8956072,11.5849533 11.8956072,11.5486331 C11.8956072,11.4844931 11.9477693,11.4327174 12.0119093,11.4327174 C12.0374107,11.4327174 12.0609802,11.4408315 12.0799131,11.454355 C12.1212564,11.3956244 12.1598949,11.3345755 12.1958288,11.271981 L10.938144,10.6286492 L10.9373712,10.6286492 L10.6641967,10.4342973 L10.3617281,10.2202894 C10.36505,10.2148668 10.3682526,10.2093634 10.3713324,10.2037827 L11.0127164,10.4992101 L11.0134891,10.4992101 L12.1996926,11.2665716 C12.2352401,11.2055227 12.2676965,11.1429283 12.2978345,11.0776291 C12.2947434,11.0772428 12.2924251,11.0749244 12.2904932,11.0733789 C12.2897204,11.0733789 12.2897204,11.0733789 12.2897204,11.0733789 C12.2866293,11.0718334 12.2835383,11.069515 12.2804472,11.0679695 L12.2796744,11.0679695 C12.2765833,11.0656512 12.2738786,11.0633329 12.2715603,11.0614009 L12.2707875,11.0614009 C12.2564913,11.0498094 12.2448997,11.0339676 12.2383312,11.0165802 C12.2383312,11.0165802 12.2375584,11.0165802 12.2375584,11.0158075 C12.2313762,11.002284 12.2282851,10.9872149 12.2282851,10.9713731 C12.2282851,10.9072331 12.2804472,10.8550711 12.3445872,10.8550711 C12.3530876,10.8550711 12.360429,10.8558439 12.3681567,10.8573894 L12.3689295,10.8573894 C12.3747252,10.8589349 12.3816802,10.8604805 12.3870896,10.8627988 C12.4110455,10.7963405 12.4322967,10.7291094 12.4512296,10.6603328 L11.0679695,10.3647479 L10.4065905,10.1191314 C10.4084553,10.112761 10.4101734,10.1063281 10.411741,10.0998365 L11.1069944,10.2190806 L11.9724979,10.4992101 L12.4523887,10.654537 C12.4705488,10.5865332 12.4856179,10.5177566 12.498755,10.4478208 C12.4427291,10.4393203 12.3998403,10.3910221 12.3998403,10.3330643 C12.3998403,10.2689243 12.4520023,10.2167623 12.5157559,10.2167623 C12.5203926,10.2167623 12.5242564,10.2167623 12.5281203,10.217535 C12.5339161,10.1472129 12.5377799,10.0757316 12.5377799,10.0038639 L11.1251546,10.0757316 L10.423369,10.0104648 C10.4234419,10.0072429 10.4234785,10.0040121 10.4234785,10.0007728 C10.4234785,9.99751962 10.4234417,9.99427528 10.4233684,9.99104014 L11.1259273,9.9254276 L12.5377799,9.9972953 C12.5377799,9.9254276 12.5339161,9.85471905 12.5281203,9.7843969 C12.5242564,9.78516967 12.5203926,9.78516967 12.5157559,9.78516967 C12.4520023,9.78516967 12.3998403,9.73300762 12.3998403,9.66886763 C12.3998403,9.61013704 12.4427291,9.56183885 12.4995278,9.55333837 C12.4863906,9.4834026 12.4705488,9.41462598 12.4523887,9.34662213 L11.1062217,9.78130581 L10.411305,9.89981873 C10.4097658,9.89356326 10.4080868,9.88736343 10.4062715,9.88122268 L11.0679695,9.63641125 L12.4512296,9.34043996 C12.4338422,9.2755272 12.4133638,9.21100082 12.390567,9.14801999 C12.3778163,9.15342939 12.3635201,9.15652047 12.3476783,9.15652047 C12.2835383,9.15652047 12.2313762,9.10435843 12.2313762,9.04021844 C12.2313762,8.99192025 12.2607415,8.950577 12.3024711,8.93318966 C12.2707875,8.86518581 12.2375584,8.79795473 12.2004654,8.73381474 L11.0127164,9.50272187 L10.3712409,9.79751756 C10.36814,9.79190896 10.3649146,9.78637906 10.3615687,9.78093152 L10.938144,9.37250996 L12.1966015,8.72840534 C12.1614404,8.66658367 12.1228019,8.6070803 12.0822314,8.54912248 C12.0625258,8.56341874 12.0389562,8.57153283 12.0134548,8.57153283 C11.9493148,8.57153283 11.8971528,8.51937079 11.8971528,8.4552308 C11.8971528,8.41852418 11.9137673,8.3860678 11.9400416,8.3648166 C11.8948345,8.31033624 11.8465363,8.2581742 11.7966925,8.20794409 L10.8496617,9.25775347 L10.3054777,9.70860066 C10.3010052,9.70397118 10.2964275,9.69944415 10.2917485,9.69502337 L10.7434057,9.1503383 L11.7924423,8.20330746 C11.7418258,8.15307735 11.688891,8.10477916 11.6344106,8.05918567 C11.6135458,8.08700543 11.5803167,8.10516554 11.5416781,8.10516554 C11.4775381,8.10516554 11.4253761,8.05261712 11.4253761,7.98847713 C11.4253761,7.96181653 11.4354221,7.93708786 11.4504911,7.9173822 C11.3921469,7.8771981 11.3334163,7.83894594 11.2723674,7.80339848 L10.6286492,9.06301518 L10.2191601,9.63994576 C10.2137466,9.63669357 10.208254,9.6335596 10.202686,9.63054738 L10.4988237,8.98728362 L11.266958,7.80030739 C11.2051364,7.76514631 11.1425419,7.73230354 11.0776291,7.70216548 C11.0602418,7.74312234 11.0185122,7.77171486 10.9713731,7.77171486 C10.9072331,7.77171486 10.8550711,7.72032559 10.8550711,7.6561856 C10.8550711,7.64111657 10.8585486,7.62604753 10.863958,7.61291043 C10.7967269,7.58895453 10.728723,7.56770332 10.6603328,7.54915682 L10.3643615,8.93241688 L10.1184442,9.59619109 C10.1124144,9.59446768 10.1063296,9.59287516 10.1001931,9.59141676 L10.219467,8.89300556 L10.6541506,7.54683851 C10.5861468,7.52906478 10.5185293,7.51399574 10.4482072,7.50163141 C10.4404795,7.55804369 10.3921813,7.60170525 10.3334507,7.60170525 C10.2693107,7.60170525 10.2171486,7.54954321 10.2171486,7.48540321 C10.2171486,7.48076659 10.2179214,7.47612996 10.2186942,7.47149334 C10.1479856,7.46531117 10.0768907,7.46222009 10.0042502,7.4618337 L10.0761179,8.87407267 L10.0107342,9.58008131 C10.0079354,9.5800265 10.00513,9.57999897 10.0023183,9.57999897 C9.99894179,9.57999897 9.99557466,9.58003828 9.99221734,9.58011646 Z M10.0015455,9.67582257 C10.1819876,9.67582257 10.3276549,9.82226267 10.3276549,10.0023183 C10.3276549,10.1819876 10.1819876,10.3284277 10.0015455,10.3284277 C9.82110352,10.3284277 9.67466342,10.1819876 9.67466342,10.0023183 C9.67466342,9.82226267 9.82110352,9.67582257 10.0015455,9.67582257 Z" id="合并形状" fill="#16007E" mask="url(#mask-2)"></path>
                <polygon id="Fill-448" fill="#39960D" mask="url(#mask-2)" points="-0.125 20.125 20.125 20.125 20.125 13.375 -0.125 13.375"></polygon>
            </g>
        </g>
    </g>
</svg>