<?xml version="1.0" encoding="UTF-8"?>
<svg width="20px" height="20px" viewBox="0 0 20 20" version="1.1" xmlns="http://www.w3.org/2000/svg" xmlns:xlink="http://www.w3.org/1999/xlink">
    <!-- Generator: Sketch 52.5 (67469) - http://www.bohemiancoding.com/sketch -->
    <title>韩国</title>
    <desc>Created with Sketch.</desc>
    <defs>
        <path d="M10,19 C14.9705627,19 19,14.9705627 19,10 C19,5.02943725 14.9705627,1 10,1 C5.02943725,1 1,5.02943725 1,10 C1,14.9705627 5.02943725,19 10,19 Z" id="path-1"></path>
    </defs>
    <g id="控制台界面" stroke="none" stroke-width="1" fill="none" fill-rule="evenodd">
        <g id="画板" transform="translate(-697.000000, -680.000000)">
            <g id="韩国" transform="translate(697.000000, 680.000000)">
                <path d="M10,20 C4.4771525,20 0,15.5228475 0,10 C0,4.4771525 4.4771525,-1.0658141e-14 10,-1.0658141e-14 C15.5228475,-1.0658141e-14 20,4.4771525 20,10 C20,15.5228475 15.5228475,20 10,20 Z" id="路径" fill="#E5E5E5" fill-rule="nonzero"></path>
                <mask id="mask-2" fill="white">
                    <use xlink:href="#path-1"></use>
                </mask>
                <use id="路径" fill="#FFFFFF" fill-rule="nonzero" xlink:href="#path-1"></use>
                <path d="M15.0249251,3.92853436 L16.176381,5.65609157 L15.5483821,6.07463309 L14.3969262,4.34707589 L15.0249251,3.92853436 Z M16.3854651,5.96971769 L17.536921,7.69690153 L16.9092954,8.11581642 L15.7578395,6.38863258 L16.3854651,5.96971769 Z M15.9669236,3.3005354 L18.4792928,7.06927593 L17.8512939,7.48781745 L15.339298,3.71907692 L15.9669236,3.3005354 Z M16.9092954,2.67216307 L18.0607513,4.39934691 L17.4327523,4.81826179 L16.2812964,3.09145132 L16.9092954,2.67216307 Z M18.2698354,4.71371975 L19.4212913,6.4409036 L18.7936657,6.85944512 L17.6418364,5.13226128 L18.2698354,4.71371975 Z M5.60307382,15.6529241 L4.97544822,16.0714656 L2.46307899,12.3027251 L3.09107795,11.8841836 L5.60307382,15.6529241 Z M2.1490795,12.5125559 L3.30016203,14.2397398 L2.67253643,14.6582813 L1.52108054,12.9310974 L2.1490795,12.5125559 Z M3.50961948,14.5537392 L4.66107537,16.2809231 L4.0330764,16.699838 L2.88162051,14.9726541 L3.50961948,14.5537392 Z M1.20670769,13.1405549 L3.71907692,16.908922 L3.09107795,17.3278369 L0.578708722,13.5594698 L1.20670769,13.1405549 Z M2.46307899,7.69690153 L4.97544822,3.92853436 L5.60307382,4.34744925 L3.09107795,8.11581642 L2.46307899,7.69690153 Z M1.52108054,7.06927593 L4.0330764,3.3005354 L4.66107537,3.71907692 L2.1490795,7.48781745 L1.52108054,7.06927593 Z M0.578708722,6.4409036 L3.09107795,2.67216307 L3.71907692,3.09145132 L1.20670769,6.85944512 L0.578708722,6.4409036 Z M14.3969262,15.6529241 L15.5483821,13.9257403 L16.176381,14.3442818 L15.0249251,16.0714656 L14.3969262,15.6529241 Z M15.7578395,13.6117408 L16.9092954,11.8841836 L17.536921,12.3027251 L16.3854651,14.0302823 L15.7578395,13.6117408 Z M15.339298,16.2809231 L16.4907539,14.5537392 L17.1183795,14.9726541 L15.9669236,16.699838 L15.339298,16.2809231 Z M16.699838,14.2397398 L17.8512939,12.5125559 L18.4792928,12.9310974 L17.3278369,14.6582813 L16.699838,14.2397398 Z M16.2812964,16.908922 L17.4327523,15.1817382 L18.0607513,15.6002797 L16.9092954,17.3278369 L16.2812964,16.908922 Z M17.6418364,14.8677387 L18.7936657,13.1405549 L19.4212913,13.5594698 L18.2698354,15.2866536 L17.6418364,14.8677387 Z" id="形状" fill="#000000" mask="url(#mask-2)"></path>
                <path d="M5.84528948,8.26825474 C5.64977271,9.1537856 6.00113451,10.1079783 6.80101359,10.641231 C7.84158025,11.3349421 9.24729731,11.0537987 9.94175515,10.0128587 C10.6350929,8.97229201 12.0411833,8.6911486 13.08175,9.38523307 C14.1223166,10.0785708 14.4038334,11.4846612 13.7093756,12.5256013 C13.5103747,12.8242633 13.2820003,13.0916525 13.0306305,13.3264921 C12.2309266,14.0554882 11.1673739,14.5 10,14.5 C7.51471863,14.5 5.5,12.4852814 5.5,10 C5.5,9.38630947 5.62284631,8.80131123 5.84528948,8.26825474 Z" id="路径" fill="#173181" fill-rule="nonzero" mask="url(#mask-2)"></path>
                <path d="M5.84528948,8.26825474 C6.52368123,6.64257599 8.12840916,5.5 10,5.5 C10.4363857,5.5 10.8582634,5.56211612 11.2572738,5.67798895 C11.6716673,5.80391348 12.0748327,5.99187929 12.453751,6.24449151 C14.5352577,7.63191372 15.0971712,10.4440946 13.7093756,12.5256013 C14.4038334,11.4846612 14.1223166,10.0785708 13.08175,9.38523307 C12.0411833,8.6911486 10.6350929,8.97229201 9.94175515,10.0128587 C9.24729731,11.0537987 7.84158025,11.3349421 6.80101359,10.641231 C6.00113451,10.1079783 5.64977271,9.1537856 5.84528948,8.26825474 Z" id="路径" fill="#C6003C" fill-rule="nonzero" mask="url(#mask-2)"></path>
                <g id="分组" mask="url(#mask-2)">
                    <g transform="translate(5.500000, 5.500000)"></g>
                </g>
            </g>
        </g>
    </g>
</svg>