<?xml version="1.0" encoding="UTF-8"?>
<svg width="20px" height="20px" viewBox="0 0 20 20" version="1.1" xmlns="http://www.w3.org/2000/svg" xmlns:xlink="http://www.w3.org/1999/xlink">
    <!-- Generator: Sketch 52.5 (67469) - http://www.bohemiancoding.com/sketch -->
    <title>新加坡</title>
    <desc>Created with Sketch.</desc>
    <defs>
        <path d="M10,19 C14.9705627,19 19,14.9705627 19,10 C19,5.02943725 14.9705627,1 10,1 C5.02943725,1 1,5.02943725 1,10 C1,14.9705627 5.02943725,19 10,19 Z" id="path-1"></path>
    </defs>
    <g id="控制台界面" stroke="none" stroke-width="1" fill="none" fill-rule="evenodd">
        <g id="画板" transform="translate(-541.000000, -680.000000)">
            <g id="新加坡" transform="translate(541.000000, 680.000000)">
                <path d="M10,20 C4.4771525,20 0,15.5228475 0,10 C0,4.4771525 4.4771525,0 10,0 C15.5228475,0 20,4.4771525 20,10 C20,15.5228475 15.5228475,20 10,20 Z" id="椭圆形-copy-5" fill="#E5E5E5" fill-rule="nonzero"></path>
                <mask id="mask-2" fill="white">
                    <use xlink:href="#path-1"></use>
                </mask>
                <use id="路径" fill="#FFFFFF" fill-rule="nonzero" xlink:href="#path-1"></use>
                <rect id="矩形-copy-14" fill="#E1001F" fill-rule="nonzero" mask="url(#mask-2)" x="0" y="0" width="20.25" height="11"></rect>
                <g id="分组-3" mask="url(#mask-2)" fill="#FFFFFF">
                    <g transform="translate(4.244854, 2.125000)">
                        <path d="M5.76344559,7.63476028 C5.37186055,7.77172126 4.9509189,7.84617857 4.51257047,7.84617857 C2.42048565,7.84617857 0.724896362,6.15017411 0.724896362,4.05767411 C0.724896362,1.96641964 2.42048565,0.27 4.51257047,0.27 C4.95088415,0.27 5.3717938,0.344463727 5.76335246,0.481421304 C3.85486857,0.558999296 2.33122226,2.13055823 2.33122226,4.05767411 C2.33122226,5.98522611 3.85491814,7.5572096 5.76344559,7.63476028 Z" id="路径"></path>
                        <polyline id="Fill-4350" points="6.14846031 4.14942857 5.63405406 3.75459375 5.11923263 4.14942857 5.31727281 3.51295982 4.80120585 3.12061607 5.43808978 3.12227679 5.63322371 2.4845625 5.82960317 3.12227679 6.46607192 3.12061607 5.95042013 3.51295982 6.14846031 4.14942857"></polyline>
                        <polyline id="Fill-4351" points="10.1856567 4.14942857 9.67166567 3.75459375 9.15684424 4.14942857 9.35446924 3.51295982 8.83881746 3.12061607 9.47528621 3.12227679 9.67083531 2.4845625 9.86721478 3.12227679 10.5036835 3.12061607 9.98803174 3.51295982 10.1856567 4.14942857"></polyline>
                        <polyline id="Fill-4352" points="8.16913442 2.65104911 7.65514335 2.25621429 7.13990674 2.65104911 7.33794692 2.01458036 6.82229513 1.62265179 7.45876388 1.62348214 7.65431299 0.986183036 7.85027728 1.62348214 8.48674603 1.62182143 7.97109424 2.01458036 8.16913442 2.65104911"></polyline>
                        <polyline id="Fill-4353" points="6.90408531 6.5475 6.38926388 6.15225 5.87485763 6.5475 6.07289781 5.91061607 5.55641567 5.51827232 6.19371478 5.51993304 6.38926388 4.88263393 6.58481299 5.51993304 7.2221121 5.51827232 6.70521478 5.91061607 6.90408531 6.5475"></polyline>
                        <polyline id="Fill-4354" points="9.43003174 6.5475 8.91604067 6.15225 8.40163442 6.5475 8.5996746 5.91061607 8.08319246 5.51827232 8.72049156 5.51993304 8.91604067 4.88263393 9.1111746 5.51993304 9.74805853 5.51827232 9.23199156 5.91061607 9.43003174 6.5475"></polyline>
                    </g>
                </g>
            </g>
        </g>
    </g>
</svg>