<?xml version="1.0" encoding="UTF-8"?>
<svg width="20px" height="20px" viewBox="0 0 20 20" version="1.1" xmlns="http://www.w3.org/2000/svg" xmlns:xlink="http://www.w3.org/1999/xlink">
    <!-- Generator: Sketch 52.5 (67469) - http://www.bohemiancoding.com/sketch -->
    <title>泰国</title>
    <desc>Created with Sketch.</desc>
    <defs>
        <path d="M10,19 C14.9705627,19 19,14.9705627 19,10 C19,5.02943725 14.9705627,1 10,1 C5.02943725,1 1,5.02943725 1,10 C1,14.9705627 5.02943725,19 10,19 Z" id="path-1"></path>
    </defs>
    <g id="控制台界面" stroke="none" stroke-width="1" fill="none" fill-rule="evenodd">
        <g id="画板" transform="translate(-671.000000, -680.000000)">
            <g id="泰国" transform="translate(671.000000, 680.000000)">
                <path d="M10,20 C4.4771525,20 0,15.5228475 0,10 C0,4.4771525 4.4771525,-1.77635684e-15 10,-1.77635684e-15 C15.5228475,-1.77635684e-15 20,4.4771525 20,10 C20,15.5228475 15.5228475,20 10,20 Z" id="路径" fill="#E5E5E5" fill-rule="nonzero"></path>
                <mask id="mask-2" fill="white">
                    <use xlink:href="#path-1"></use>
                </mask>
                <use id="路径" fill="#FFFFFF" fill-rule="nonzero" xlink:href="#path-1"></use>
                <polygon id="Fill-446" fill="#E1001F" mask="url(#mask-2)" points="-0.125 3.8125 20.125 3.8125 20.125 -0.125 -0.125 -0.125"></polygon>
                <polygon id="Fill-447" fill="#28348F" mask="url(#mask-2)" points="-0.125 13.375 20.125 13.375 20.125 6.625 -0.125 6.625"></polygon>
                <polygon id="Fill-448" fill="#E1001F" mask="url(#mask-2)" points="-0.125 20.125 20.125 20.125 20.125 16.1875 -0.125 16.1875"></polygon>
            </g>
        </g>
    </g>
</svg>