<?xml version="1.0" encoding="UTF-8" standalone="no"?>
<!DOCTYPE svg PUBLIC "-//W3C//DTD SVG 1.1//EN" "http://www.w3.org/Graphics/SVG/1.1/DTD/svg11.dtd">
<svg xmlns="http://www.w3.org/2000/svg" version="1.1" viewBox="0 0 96 96">
<path fill="#00a4ff" d="
  M 48.44 96.00
  Q 48.06 96.00 47.69 96.00
  Q 27.67 84.24 7.34 72.66
  C 6.82 72.36 6.50 71.81 6.50 71.22
  L 6.50 24.85
  C 6.50 24.37 6.76 23.92 7.18 23.67
  L 47.23 0.61
  C 47.81 0.28 48.51 0.28 49.08 0.61
  L 89.20 23.82
  C 89.54 24.02 89.75 24.38 89.75 24.77
  L 89.75 71.60
  C 89.75 71.95 89.56 72.28 89.26 72.45
  Q 68.73 84.25 48.44 96.00
  Z
  M 47.73 39.90
  Q 46.86 34.45 42.64 31.65
  Q 38.70 29.02 33.96 29.36
  Q 28.45 29.75 24.81 34.77
  Q 20.72 40.40 22.75 46.00
  Q 25.84 54.50 34.99 55.19
  Q 36.24 55.28 35.29 56.11
  Q 30.35 60.44 31.33 65.63
  Q 32.11 69.80 36.68 72.89
  Q 43.77 77.70 52.13 75.96
  Q 59.00 74.53 62.85 70.17
  Q 68.47 63.79 60.85 55.61
  Q 60.51 55.25 60.99 55.23
  Q 70.36 54.78 73.25 46.75
  Q 75.88 39.44 71.15 34.05
  Q 68.60 31.15 65.15 29.89
  Q 61.27 28.48 57.50 29.75
  Q 50.59 32.08 48.31 39.94
  Q 47.94 41.21 47.73 39.90
  Z"
/>
<circle fill="#00a4ff" cx="35.18" cy="42.29" r="4.15"/>
<circle fill="#00a4ff" cx="61.17" cy="42.28" r="4.16"/>
<path fill="#00a4ff" d="
  M 49.06 61.56
  Q 49.45 62.07 49.06 62.56
  Q 47.28 64.83 47.25 61.50
  L 47.21 56.56
  C 47.20 56.25 47.05 55.95 46.79 55.77
  Q 45.10 54.54 41.94 52.81
  Q 40.18 51.85 41.56 50.99
  C 41.82 50.82 42.16 50.82 42.44 50.97
  L 47.56 53.75
  C 47.88 53.92 48.22 53.94 48.46 53.80
  L 53.40 51.09
  C 53.76 50.89 54.09 50.79 54.31 50.82
  Q 55.37 50.94 55.10 51.97
  C 55.04 52.21 54.82 52.47 54.49 52.67
  L 49.47 55.77
  C 49.22 55.92 49.08 56.23 49.12 56.56
  Q 49.41 59.07 49.06 61.56
  Z"
/>
</svg>
