<?xml version="1.0" encoding="utf-8"?>
<!-- Generator: Adobe Illustrator 23.0.1, SVG Export Plug-In . SVG Version: 6.00 Build 0)  -->
<!DOCTYPE svg PUBLIC "-//W3C//DTD SVG 1.1//EN" "http://www.w3.org/Graphics/SVG/1.1/DTD/svg11.dtd" [
	<!ENTITY ns_extend "http://ns.adobe.com/Extensibility/1.0/">
	<!ENTITY ns_ai "http://ns.adobe.com/AdobeIllustrator/10.0/">
	<!ENTITY ns_graphs "http://ns.adobe.com/Graphs/1.0/">
	<!ENTITY ns_vars "http://ns.adobe.com/Variables/1.0/">
	<!ENTITY ns_imrep "http://ns.adobe.com/ImageReplacement/1.0/">
	<!ENTITY ns_sfw "http://ns.adobe.com/SaveForWeb/1.0/">
	<!ENTITY ns_custom "http://ns.adobe.com/GenericCustomNamespace/1.0/">
	<!ENTITY ns_adobe_xpath "http://ns.adobe.com/XPath/1.0/">
]>
<svg version="1.1" id="图层_1" xmlns:x="&ns_extend;" xmlns:i="&ns_ai;" xmlns:graph="&ns_graphs;"
	 xmlns="http://www.w3.org/2000/svg" xmlns:xlink="http://www.w3.org/1999/xlink" x="0px" y="0px" width="192px" height="60px"
	 viewBox="0 0 192 60" style="enable-background:new 0 0 192 60;" xml:space="preserve">
<style type="text/css">
	.st0{fill:#FFFFFF;}
</style>
<metadata>
	<sfw  xmlns="&ns_sfw;">
		<slices></slices>
		<sliceSourceBounds  bottomLeftOrigin="true" height="60" width="190.1" x="2.6" y="0"></sliceSourceBounds>
	</sfw>
</metadata>
<g>
	<polygon class="st0" points="82.5,19.9 68.3,19.9 67.6,22.9 72.9,22.9 69.7,41.4 73.4,41.4 76.8,22.9 82,22.9 	"/>
	<polygon class="st0" points="100.6,19.9 96.7,19.9 90.6,28.9 87.6,28.9 89,19.9 85.3,19.9 81.6,41.4 85.3,41.4 86.9,32.1 
		90.1,32.1 93.5,41.4 97.6,41.4 93.5,30.4 	"/>
	<polygon class="st0" points="114.6,22.9 115.8,19.9 103.6,19.9 99.9,41.4 111.4,41.4 112.8,38.2 104.3,38.2 105.4,32 112.1,32 
		113.4,28.9 105.9,28.9 107,22.9 	"/>
	<path class="st0" d="M117.8,24l-0.5,3c-0.2,0.9-0.2,1.6-0.2,2.1c0,1.8,0.7,2.7,3,2.7h4.3c1.1,0,1.4,0,1.4,0.7c0,0.4,0,0.9-0.2,2
		l-0.4,1.4c-0.4,2-0.7,2.1-2.5,2.1h-7.3l0.5,3.2h6.6c2,0,3.2,0,4.3-0.7c1.1-0.7,1.6-2,2-3.5l0.5-2.8c0.2-0.5,0.4-2.3,0.4-3
		c0-2.1-1.6-2.5-3.9-2.5h-3.7c-0.7,0-1.2-0.2-1.2-0.7c0-0.2,0-0.9,0.2-1.6l0.4-1.8c0.4-1.4,0.5-1.8,1.8-1.8h6.9l1.2-3.2h-8.2
		C119.6,19.9,118.5,20.6,117.8,24z"/>
	<path class="st0" d="M139.8,20.4h-3.5l-0.9,4.8h-2.1l-0.5,2.8h2.1l-1.1,6.6c-0.2,1.4-0.5,2.5-0.5,3.4c0,2.5,1.6,3.4,4.8,3.4h2.1
		l1.2-2.8h-2c-1.8,0-2.5,0-2.5-1.1c0-0.5,0.2-1.6,0.4-2.8l1.1-6.6h4.4l0.5-2.8h-4.6L139.8,20.4z"/>
	<path class="st0" d="M154.2,25.2h-7.5l0.5,2.8h5.7c1.6,0,2.1,0.4,2.1,1.1c0,0.4-0.2,1.2-0.4,2h-4.3c-1.4,0-2.5,0-3.2,0.2
		c-1.4,0.4-2,1.2-2.5,3.4l-0.2,1.1c-0.4,1.4-0.4,2.1-0.4,2.7c0,2.3,1.8,2.8,3.7,2.8h8.5l1.8-10.5c0.2-1.1,0.4-2.1,0.4-2.8
		C158.8,26.1,157.4,25.2,154.2,25.2z M153.6,38.5H149c-0.7,0-1.1-0.2-1.1-0.7c0-0.2,0.2-1.1,0.2-2v-0.5c0.2-1.1,0.5-1.4,1.6-1.4h4.4
		L153.6,38.5z"/>
	<path class="st0" d="M163.9,26.5c-1.1,0.9-1.4,2.3-1.8,4.4l-0.7,3.7c-0.2,1.4-0.4,2.3-0.4,3c0,2.7,1.6,3.7,5.1,3.7h4.6l1.2-2.8h-5
		c-2,0-2.5-0.2-2.5-1.4c0-0.5,0.2-1.2,0.4-2.5l0.7-3.7c0.2-1.1,0.4-1.8,0.7-2.1c0.5-0.5,1.1-0.5,2.1-0.5h4.3l1.2-2.8h-5.3
		C166.4,25.2,165,25.6,163.9,26.5z"/>
	<polygon class="st0" points="191.1,25.2 187.2,25.2 182.4,31.4 180.1,31.4 182.4,18.6 178.8,18.6 174.7,41.4 178.3,41.4 
		179.5,34.3 182,34.3 184.5,41.4 188.4,41.4 185,32.5 	"/>
</g>
<g>
	<path class="st0" d="M26.9,0l-26,15v30l26,15l26-15V15L26.9,0z M35,34.4c-0.3,0-0.5,0-0.7,0c2,1.4,3.3,3.4,3.3,5.6
		c0,4.2-4.8,7.7-10.7,7.7S16.2,44.3,16.2,40c0-2.2,1.3-4.2,3.3-5.6c-0.2,0-0.5,0-0.7,0c-4.5,0-8.1-3.6-8.1-8.1s3.6-8.1,8.1-8.1
		s8.1,3.6,8.1,8.1c0-4.5,3.6-8.1,8.1-8.1s8.1,3.6,8.1,8.1S39.5,34.4,35,34.4z"/>
	<polygon class="st0" points="26.9,33.8 22.9,31.5 22.4,32.5 26.3,34.8 26.3,39.3 27.5,39.3 27.5,34.8 31.4,32.5 30.8,31.5 	"/>
	<path class="st0" d="M18.8,23.7c-1.4,0-2.6,1.2-2.6,2.6s1.2,2.6,2.6,2.6c1.4,0,2.6-1.2,2.6-2.6S20.2,23.7,18.8,23.7z"/>
	<path class="st0" d="M35,23.7c-1.4,0-2.6,1.2-2.6,2.6s1.2,2.6,2.6,2.6c1.4,0,2.6-1.2,2.6-2.6S36.4,23.7,35,23.7z"/>
</g>
</svg>
