<svg width="2038" height="512" viewBox="0 0 2038 512" fill="none" xmlns="http://www.w3.org/2000/svg">
<path d="M257.707 93.6991L118.877 174.368V174.445L38.4926 128.378L177.616 47.5L241.633 10.3322C251.571 4.5621 263.841 4.56429 273.777 10.338L477.05 128.453L396.537 174.594V174.368L257.707 93.6991Z" fill="#29CCFF"/>
<path d="M396.537 266.97V326.122C396.537 333.247 392.746 339.834 386.585 343.414L257.707 418.301L128.829 343.414C122.668 339.834 118.877 333.247 118.877 326.122V266.822L38.2825 220.633V365.084C38.2825 376.485 44.348 387.024 54.2054 392.752L241.63 501.658C251.57 507.434 263.844 507.434 273.784 501.658L461.208 392.752C471.066 387.025 477.131 376.485 477.131 365.084V220.782L396.537 266.97Z" fill="#29CCFF"/>
<path d="M337.798 464.5L128.849 343.41C122.677 339.833 118.877 333.24 118.877 326.106V266.821L38.2825 220.633V365.084C38.2825 376.485 44.348 387.024 54.2054 392.752L241.636 501.662C251.573 507.436 263.842 507.438 273.781 501.668L337.798 464.5Z" fill="#0052F2"/>
<path d="M177.616 47.5L241.633 10.3322C251.572 4.5621 263.841 4.56429 273.777 10.338L477.05 128.453L396.537 174.594L177.616 47.5Z" fill="#0052F2"/>
<path d="M250.305 149.464C254.018 147.321 258.592 147.321 262.305 149.464L345.568 197.536C349.281 199.679 351.568 203.641 351.568 207.928V304.072C351.568 308.359 349.281 312.321 345.568 314.464L262.305 362.536C258.592 364.679 254.018 364.679 250.305 362.536L167.042 314.464C163.33 312.321 161.042 308.359 161.042 304.072V207.928C161.042 203.641 163.33 199.679 167.042 197.536L250.305 149.464Z" fill="url(#paint0_linear_36_228)"/>
<path d="M713.4 182.6H612.6L608.6 204.8H645.6L622.8 334H649.8L672.6 204.8H709.4L713.4 182.6Z" fill="white"/>
<path d="M840.556 182.6H812.556L769.556 246.8H748.356L759.556 182.6H732.756L706.156 334H732.956L744.356 268.6H766.956L790.156 334H818.956L789.556 256.6L840.556 182.6Z" fill="white"/>
<path d="M938.462 204.2L947.462 182.6H861.662L835.062 334H916.462L925.662 311.8H865.862L873.462 267.6H920.862L929.462 246.6H877.262L884.662 204.2H938.462Z" fill="white"/>
<path d="M1078.59 181.4H1072.19C1055.39 181.4 1043.39 182.6 1035.59 186.2C1022.19 192.4 1018.19 204.4 1014.39 226.2L995.186 334H1021.59L1031.79 276.4H1085.99L1075.79 334H1102.79L1119.39 239.6C1121.19 229.6 1122.39 220.6 1122.39 212.4C1122.39 189.8 1110.99 181.4 1078.59 181.4ZM1035.59 254.6L1039.79 230.6C1041.99 218.4 1043.79 211.6 1048.39 208C1052.59 204.6 1059.59 203.6 1069.39 203.6H1074.59C1090.59 203.6 1095.39 205.8 1095.39 217C1095.39 222.2 1094.19 230.2 1092.59 239.2L1089.79 254.6H1035.59Z" fill="white"/>
<path d="M1205.75 220.6H1151.35L1131.55 334H1156.35L1172.55 241.2H1197.55C1210.95 241.2 1214.15 243.4 1214.15 249.6C1214.15 253 1213.35 258.4 1211.75 267.2L1199.95 334H1224.75L1236.75 265.4C1238.35 255.8 1239.95 247 1239.95 241C1239.95 226.2 1231.15 220.6 1205.75 220.6Z" fill="white"/>
<path d="M1341.59 220.6L1326.99 302.4H1301.79C1288.79 302.4 1284.39 300.8 1284.39 292.2C1284.39 288.6 1284.99 283.6 1286.59 275L1296.19 220.6H1271.39L1261.79 275C1259.99 285.2 1259.19 291.8 1259.19 296.4C1259.19 315.4 1269.59 322.6 1294.99 322.6H1323.39L1321.99 330.4C1318.79 348 1316.59 349.2 1300.99 349.2H1259.79L1263.39 369.6H1306.59C1329.59 369.6 1340.99 364.2 1345.79 337L1366.19 220.6H1341.59Z" fill="white"/>
<path d="M1513.34 220.6L1478.14 305.2L1472.14 220.6H1447.54L1406.94 305.2L1406.34 220.6H1381.74L1384.94 334H1412.94L1451.54 257L1457.94 334H1486.14L1536.74 220.6H1513.34Z" fill="white"/>
<path d="M1608.1 220.6H1578.1L1586.3 174.4H1561.5L1533.5 334H1558.3L1574.5 241.2H1599.7C1613.1 241.2 1616.3 243.4 1616.3 249.6C1616.3 253 1615.5 258.4 1613.9 267.2L1602.1 334H1626.9L1639.1 265.4C1640.9 255.8 1642.3 247 1642.3 241C1642.3 226.2 1633.5 220.6 1608.1 220.6Z" fill="white"/>
<path d="M1727.92 219.2H1714.32C1697.12 219.2 1687.12 221.2 1680.12 227.2C1672.52 233.6 1670.12 243.6 1668.52 252.4L1660.72 297.2C1659.92 302 1659.32 307 1659.32 311.2C1659.32 327.4 1668.52 334 1694.52 334H1731.32L1739.52 313.8H1699.32C1687.72 313.8 1684.12 312.2 1684.12 305.2C1684.12 303 1684.52 299.8 1685.12 296.4L1686.12 290.2H1730.12C1746.72 290.2 1753.32 284 1756.52 266.2L1759.32 250.4C1759.92 247.2 1760.12 244 1760.12 241.6C1760.12 224.8 1748.92 219.2 1727.92 219.2ZM1734.52 250.4L1732.32 263.4C1731.52 268.6 1729.32 270.8 1723.72 270.8H1689.72L1692.92 252.4C1695.12 240.4 1699.52 239.2 1708.72 239.2H1722.92C1732.12 239.2 1735.12 240.4 1735.12 245.6C1735.12 247 1734.92 248.6 1734.52 250.4Z" fill="white"/>
<path d="M1766.27 334H1791.27L1804.67 258.6C1807.27 243.6 1810.27 241.2 1824.67 241.2H1842.87L1851.47 220.6H1823.87C1792.47 220.6 1785.27 226.2 1779.87 257.2L1766.27 334Z" fill="white"/>
<path d="M1921.48 219.2H1907.88C1890.68 219.2 1880.68 221.2 1873.68 227.2C1866.08 233.6 1863.68 243.6 1862.08 252.4L1854.28 297.2C1853.48 302 1852.88 307 1852.88 311.2C1852.88 327.4 1862.08 334 1888.08 334H1924.88L1933.08 313.8H1892.88C1881.28 313.8 1877.68 312.2 1877.68 305.2C1877.68 303 1878.08 299.8 1878.68 296.4L1879.68 290.2H1923.68C1940.28 290.2 1946.88 284 1950.08 266.2L1952.88 250.4C1953.48 247.2 1953.68 244 1953.68 241.6C1953.68 224.8 1942.48 219.2 1921.48 219.2ZM1928.08 250.4L1925.88 263.4C1925.08 268.6 1922.88 270.8 1917.28 270.8H1883.28L1886.48 252.4C1888.68 240.4 1893.08 239.2 1902.28 239.2H1916.48C1925.68 239.2 1928.68 240.4 1928.68 245.6C1928.68 247 1928.48 248.6 1928.08 250.4Z" fill="white"/>
<defs>
<linearGradient id="paint0_linear_36_228" x1="256.305" y1="146" x2="256.305" y2="366" gradientUnits="userSpaceOnUse">
<stop stop-color="#29CCFF"/>
<stop offset="1" stop-color="#0052F2"/>
</linearGradient>
</defs>
</svg>
