<?xml version="1.0" encoding="UTF-8"?>
<svg width="16px" height="16px" viewBox="0 0 16 16" version="1.1" xmlns="http://www.w3.org/2000/svg" xmlns:xlink="http://www.w3.org/1999/xlink">
    <!-- Generator: Sketch 51.2 (57519) - http://www.bohemiancoding.com/sketch -->
    <title>grafana监控</title>
    <desc>Created with Sketch.</desc>
    <defs></defs>
    <g id="grafana监控" stroke="none" stroke-width="1" fill="none" fill-rule="evenodd">
        <rect id="Rectangle-Copy-11" fill="#444444" opacity="0" x="0" y="0" width="16" height="16"></rect>
        <path d="M15.3669799,11.1243393 L13.7963712,9.55373056 C14.3309269,7.55202979 13.8130167,5.32773533 12.2426407,3.75735931 C9.89949494,1.41421356 6.10050506,1.41421356 3.75735931,3.75735931 C2.18698329,5.32773533 1.6690731,7.55202979 2.20362875,9.55373056 L0.633020054,11.1243393 C-0.600920584,8.21204567 -0.0308786848,4.71717019 2.34314575,2.34314575 C5.46734008,-0.781048583 10.5326599,-0.781048583 13.6568542,2.34314575 C16.0308787,4.71717019 16.6009206,8.21204567 15.3669799,11.1243393 Z M8,6.58578644 L14.3201955,12.905982 C14.117437,13.1665117 13.8963233,13.4173852 13.6568542,13.6568542 C10.5326599,16.7810486 5.46734008,16.7810486 2.34314575,13.6568542 C2.10367672,13.4173852 1.88256296,13.1665117 1.67980446,12.905982 L8,6.58578644 Z M11.4768734,12.891087 L8,9.41421356 L4.52312657,12.891087 C6.59779435,14.3696377 9.40220565,14.3696377 11.4768734,12.891087 Z" id="Combined-Shape" fill="#006EFF" fill-rule="nonzero"></path>
    </g>
</svg>