<?xml version="1.0" encoding="UTF-8"?>
<svg width="16px" height="16px" viewBox="0 0 16 16" version="1.1" xmlns="http://www.w3.org/2000/svg" xmlns:xlink="http://www.w3.org/1999/xlink">
    <!-- Generator: Sketch 51.2 (57519) - http://www.bohemiancoding.com/sketch -->
    <title>helm应用</title>
    <desc>Created with Sketch.</desc>
    <defs></defs>
    <g id="helm应用" stroke="none" stroke-width="1" fill="none" fill-rule="evenodd">
        <rect id="Rectangle-Copy-11" fill="#444444" opacity="0" x="0" y="0" width="16" height="16"></rect>
        <path d="M12.1924031,2.39338335 L13.6568542,0.928932188 L15.0710678,2.34314575 L13.6068628,3.8073508 C13.9258776,4.23373142 14.1987626,4.69990644 14.4171004,5.1996284 L12.5843947,6.0003716 C12.3426914,5.44717166 12.0074938,4.95154617 11.6011394,4.53007158 L11.4718205,4.40075272 C10.5612527,3.52284744 9.32861135,3 8,3 C6.67138865,3 5.43874726,3.52284744 4.52817947,4.40075272 L4.39886014,4.53007205 C3.99250623,4.95154617 3.65730863,5.44717166 3.41560529,6.0003716 L1.58289955,5.1996284 C1.80123737,4.69990644 2.07412244,4.23373142 2.39313724,3.8073508 L0.928932188,2.34314575 L2.34314575,0.928932188 L3.80759692,2.39338335 C4.73127654,1.7026233 5.82478852,1.24012625 7,1.07130393 L7,0 L9,0 L9,1.07130393 C10.1752115,1.24012625 11.2687235,1.7026233 12.1924031,2.39338335 Z M3.80759692,13.6066166 L2.34314575,15.0710678 L0.928932188,13.6568542 L2.39313724,12.1926492 C2.07412244,11.7662686 1.80123737,11.3000936 1.58289955,10.8003716 L3.41560529,9.9996284 C3.65730863,10.5528283 3.99250623,11.0484538 4.39886061,11.4699284 L4.52817947,11.5992473 C5.43874726,12.4771526 6.67138865,13 8,13 C9.32861135,13 10.5612527,12.4771526 11.4718205,11.5992473 L11.6011399,11.469928 C12.0074938,11.0484538 12.3426914,10.5528283 12.5843947,9.9996284 L14.4171004,10.8003716 C14.1987626,11.3000936 13.9258776,11.7662686 13.6068628,12.1926492 L15.0710678,13.6568542 L13.6568542,15.0710678 L12.1924031,13.6066166 C11.2687235,14.2973767 10.1752115,14.7598737 9,14.9286961 L9,16 L7,16 L7,14.9286961 C5.82478852,14.7598737 4.73127654,14.2973767 3.80759692,13.6066166 Z M-1.15463195e-14,7 L16,7 L16,9 L-1.15463195e-14,9 L-1.15463195e-14,7 Z" id="Combined-Shape" fill="#888888" fill-rule="nonzero"></path>
    </g>
</svg>