<?xml version="1.0" encoding="UTF-8"?>
<svg width="16px" height="16px" viewBox="0 0 16 16" version="1.1" xmlns="http://www.w3.org/2000/svg" xmlns:xlink="http://www.w3.org/1999/xlink">
    <!-- Generator: Sketch 51.2 (57519) - http://www.bohemiancoding.com/sketch -->
    <title>操作记录</title>
    <desc>Created with Sketch.</desc>
    <defs></defs>
    <g id="操作记录" stroke="none" stroke-width="1" fill="none" fill-rule="evenodd">
        <rect id="Rectangle-Copy-11" fill="#444444" opacity="0" x="0" y="0" width="16" height="16"></rect>
        <path d="M1,1 L1,15 L15,15 L15,5.001 L11,1 L1,1 Z M3,3.001 L10.172,3.001 L13,5.829 L13,13.001 L3,13.001 L3,3.001 Z M7,8 L12,8 L12,6 L7,6 L7,8 Z M4,8 L6,8 L6,6 L4,6 L4,8 Z M4,11 L6,11 L6,9 L4,9 L4,11 Z M7,11.001 L12,11.001 L12,9 L7,9 L7,11.001 Z" id="Fill-1" fill="#006EFF"></path>
    </g>
</svg>